<?xml version="1.0" encoding="utf-8"?>
<!-- Generator: Adobe Illustrator 16.0.1, SVG Export Plug-In . SVG Version: 6.00 Build 0)  -->
<!DOCTYPE svg PUBLIC "-//W3C//DTD SVG 1.1//EN" "http://www.w3.org/Graphics/SVG/1.1/DTD/svg11.dtd">
<svg version="1.1" id="Layer_1" xmlns="http://www.w3.org/2000/svg" xmlns:xlink="http://www.w3.org/1999/xlink" x="0px" y="0px"
	 width="792px" height="1008px" viewBox="0 0 792 1008" enable-background="new 0 0 792 1008" xml:space="preserve">
<g>
	<path fill-rule="evenodd" clip-rule="evenodd" fill="#FFFFFF" d="M514.228,483.934c-2.026,2.659-1.505,6.127-2.132,9.292
		c-0.675,3.41-0.755,6.936-1.407,10.351c-0.89,4.657,0.058,9.19,0.367,13.785c0.124,1.84-0.307,3.813-0.921,5.573
		c-0.394,1.126-1.293,2.037-3.053,1.987c-2.358-0.067-4.729,0.673-7.11,0.889c-2.181,0.197-4.392,0.321-6.571,0.188
		c-3.517-0.215-7.027-0.598-10.523-1.04c-3.084-0.391-6.144-0.976-9.219-1.443c-1.356-0.206-2.722-0.365-4.089-0.494
		c-5.331-0.503-10.069-2.675-14.766-5.062c-5.6-2.846-11.219-5.666-16.937-8.261c-2.969-1.348-6.138-2.284-9.27-3.227
		c-4.232-1.274-7.115,0.931-9.66,3.976c-2.481,2.97-4.955,5.963-7.656,8.726c-1.09,1.116-2.773,2.302-4.191,2.308
		c-2.755,0.012-3.249,1.691-3.685,3.622c-0.316,1.405-0.213,2.856-1.562,3.954c-0.386,0.314-0.192,1.744,0.154,2.461
		c0.545,1.129,1.775,1.992,2.106,3.144c0.4,1.392,0.628,3.157,0.107,4.421c-1.108,2.694,0.424,4.985,0.537,7.462
		c0.06,1.314,0.458,2.656,0.286,3.929c-0.446,3.296-1.065,6.572-1.728,9.834c-0.61,3.008-2.714,4.712-5.332,6.094
		c-3.671,1.937-7.623,3.647-10.694,6.327c-3.316,2.892-7.312,3.546-11.061,5.01c-6.23,2.434-12.958,2.919-19.395,4.562
		c-3.55,0.906-7.051,2.022-10.53,3.176c-2.863,0.949-5.593,0.48-8.456-0.066c-2.17-0.414-4.506-0.259-6.729-0.012
		c-2.186,0.241-4.312,1.251-6.485,1.322c-2.991,0.101-6.003-0.33-9.002-0.596c-1.813-0.16-3.618-0.64-5.423-0.622
		c-4.687,0.046-9.371,0.38-14.056,0.409c-2.163,0.013-4.322-0.503-6.492-0.633c-5.189-0.312-10.296,0.503-15.328,1.595
		c-2.435,0.528-4.758,1.814-7.312,1.103c-3.474-0.967-6.975-0.483-10.468-0.458c-0.702,0.005-1.438,0.272-2.097,0.562
		c-2.928,1.288-5.703,1.805-9.043,0.832c-3.794-1.104-7.806-1.408-11.93-0.852c-4.423,0.598-8.88,0.641-13.146-1.928
		c-2.098-1.264-5.132-1.145-7.763-1.302c-2.75-0.165-5.529,0.209-8.289,0.126c-3.002-0.091-5.995-0.454-8.995-0.66
		c-1.126-0.077-2.265,0.021-3.388-0.08c-5.354-0.477-10.668-0.028-15.994,0.481c-1.316,0.126-2.9,0.103-3.991-0.51
		c-5.059-2.839-10.763-2.919-16.176-4.254c-3.81-0.939-7.667-0.531-11.411-1.242c-2.608-0.495-5.029-1.91-7.618-2.588
		c-3.067-0.804-5.964-2.077-9.398-1.745c-3.812,0.37-7.734-0.537-11.579-0.341c-4.659,0.239-8.88-2.402-13.712-1.432
		c-2.24,0.45-4.833-0.915-7.276-1.401c-2.854-0.568-5.739-0.992-8.576-1.63c-3.564-0.801-7.094-1.757-10.639-2.643
		c-4.268-1.067-8.597-1.936-12.786-3.253c-4.27-1.343-7.999-3.78-8.922-8.501c-0.516-2.64-0.138-5.504,0.139-8.238
		c0.339-3.353,1.738-6.593,0.811-10.083c-0.196-0.737,0.183-1.679,0.446-2.477c0.831-2.514,1.604-5.061,2.653-7.484
		c0.653-1.509,1.659-2.902,2.696-4.196c1.346-1.681,2.919-3.179,4.323-4.815c2.635-3.074,5.965-5.144,9.563-6.874
		c1.459-0.702,2.857-1.531,4.618-2.484c-4.043-2.281-7.818-2.479-11.783-1.668c-2.431,0.496-4.854,0.467-7.16-0.778
		c-1.132-0.611-2.361-1.172-3.611-1.405c-1.592-0.297-2.108-1.356-2.252-2.64c-0.387-3.45-0.785-6.908-0.896-10.373
		c-0.053-1.661,0.852-3.357,0.772-5.01c-0.198-4.065,1.905-7.456,2.835-11.179c0.724-2.9,1.015-5.907,1.561-8.854
		c0.832-4.497,2.663-8.598,4.903-12.565c1.708-3.025,2.728-6.552,4.874-9.188c2.812-3.454,5.153-7.729,10.163-8.813
		c1.041-0.226,1.977-0.941,2.96-1.431c-0.017-0.18-0.035-0.359-0.052-0.54c-2.733-0.93-5.5-1.775-8.191-2.813
		c-3.619-1.396-7.182-2.937-10.766-4.424c-1.784-0.741-2.275-2.431-2.082-3.968c0.245-1.949,0.047-3.601-0.494-5.526
		c-0.76-2.707-0.809-5.724-0.601-8.567c0.345-4.733,1.135-9.435,1.739-14.149c0.042-0.328,0.024-0.688,0.156-0.978
		c1.729-3.822,1.661-3.787-1.292-6.527c-2.745-2.547-5.26-5.292-6.178-9.133c-0.309-1.29-0.904-2.522-1.46-3.739
		c-1.653-3.618,0.098-6.84,1.54-9.835c1.811-3.761,4.812-6.606,8.998-7.871c0.303-0.092,0.627-0.234,0.926-0.203
		c3.673,0.384,5.752-2.342,8.268-4.212c0.244-0.182,0.427-0.491,0.694-0.592c4.046-1.539,8.001-3.473,12.179-4.471
		c5.882-1.406,11.922-2.174,17.914-3.083c1.57-0.238,3.226,0.137,4.822-0.003c1.327-0.117,2.645-0.289,3.171-2.062
		c1.197-4.027,4.022-7.073,7.015-9.778c1.585-1.435,3.957-2.012,5.994-2.933c3.675-1.662,6.768-0.263,10.165,1.351
		c3.198,1.519,6.916,1.95,10.418,2.806c0.414,0.101,0.918-0.101,1.365-0.217c2.601-0.68,3.906-0.057,4.343,2.594
		c0.29,1.761,1.098,1.716,2.46,1.583c3.703-0.363,7.415-0.685,11.131-0.834c4.82-0.194,9.648-0.233,14.474-0.275
		c0.915-0.008,1.84,0.451,2.749,0.414c2.33-0.095,4.651-0.377,6.979-0.528c3.574-0.233,7.15-0.458,10.729-0.614
		c4.596-0.202,9.225-0.717,13.785-0.373c3.667,0.277,7.334,0.977,10.989,2.018c6.813,1.94,13.636,1.894,19.635-3.163
		c2.307-1.944,5.209-3.511,8.522-2.3c1.151,0.42,2.256,1.172,3.162,2.01c1.955,1.805,4.262,1.898,6.597,1.458
		c3.839-0.727,7.613-1.618,11.599-1.099c1.582,0.206,3.258-0.458,4.895-0.486c2.477-0.044,4.959,0.073,7.435,0.208
		c3.637,0.199,7.276,0.413,10.904,0.734c3.778,0.334,7.544,0.812,11.316,1.211c7.409,0.787,14.209,3.544,20.943,6.494
		c2.041,0.894,3.983,2.014,6.009,2.945c1.551,0.713,2.917-0.057,4.223-0.804c2.308-1.321,4.523-2.822,6.903-3.993
		c3.004-1.478,6.07-0.804,8.861,0.643c1.468,0.761,2.464,2.466,3.947,3.154c1.727,0.802,3.737,1.229,5.651,1.336
		c3.714,0.209,7.446,0.1,11.171,0.077c0.721-0.004,1.592,0.003,2.136-0.37c3.573-2.448,7.36-2.948,11.592-2.073
		c5.69,1.178,11.445,2.06,17.193,2.932c4.924,0.747,9.142,3.366,13.757,4.918c3.984,1.34,8.024,2.523,11.967,3.974
		c2.495,0.918,4.961,2.024,7.232,3.393c1.111,0.669,1.817,2.081,2.577,3.241c1.171,1.793,2.555,3.5,1.774,5.967
		c-0.583,1.84-2.095,5.009-4.063,5.518c-3.443,0.893-5.684,3.351-7.786,6.037c-1.017,1.299-2.308,2.389-3.521,3.525
		c-0.67,0.626-1.434,1.15-2.224,1.774c0.871,1.447,1.851,2.65,2.343,4.027c0.403,1.131,0.177,2.475,0.321,3.713
		c0.214,1.816,0.606,3.616,0.74,5.436c0.109,1.501,0.365,3.184-0.154,4.507c-2.392,6.092-3.041,12.39-2.75,18.843
		c0.11,2.428-0.214,4.63-2.129,6.419c-1.485,1.39-2.179,3.122-1.615,5.237c0.301,1.127,0.407,2.305,0.662,3.817
		c-0.794,0.156-2.295,0.018-3.146,0.697c-3.469,2.768-7.432,2.274-11.421,2.369c-6.218,0.148-12.438,0.525-18.635,1.052
		c-2.846,0.242-5.62,1.218-8.462,1.604c-5.563,0.755-11.155,1.3-16.727,1.994c-3.168,0.396-6.351,0.77-9.474,1.412
		c-4.489,0.922-8.938,1.007-13.503,0.573c-2.931-0.278-5.945,0.473-8.921,0.466c-4.492-0.012-8.988-0.466-13.476-0.386
		c-3.918,0.07-7.827,0.642-11.743,0.943c-1.198,0.092-2.42-0.085-3.612,0.042c-5.676,0.603-11.341,1.313-17.019,1.899
		c-6.585,0.681-13.169,1.54-19.774,1.817c-5.228,0.22-10.486-0.368-15.733-0.501c-2.385-0.06-4.779,0.231-7.164,0.154
		c-5.201-0.169-10.462-0.047-15.577-0.838c-5.308-0.822-10.553-0.585-15.842-0.612c-2.323-0.011-4.636-0.644-6.967-0.796
		c-4.763-0.311-9.542-0.385-14.299-0.76c-2.787-0.22-5.53-0.993-8.317-1.221c-2.729-0.223-5.487-0.071-8.233-0.085
		c-0.453-0.002-0.91,0.019-1.359-0.025c-7.025-0.697-14.042-1.494-21.077-2.062c-2.746-0.223-5.793-0.612-8.224,0.322
		c-2.173,0.835-4.257,0.591-6.331,0.919c-2.215,0.35-4.573-0.181-6.867-0.354c-3.973-0.299-7.955-0.53-11.915-0.962
		c-2.573-0.28-5.113-1.228-7.666-1.221c-3.097,0.008-5.757-1.52-8.721-1.798c-0.129-0.012-0.288-0.015-0.381-0.088
		c-3.427-2.672-6.36-0.518-9.354,0.959c-2.562,1.263-5.149,2.483-7.648,3.862c-1.381,0.762-2.685,1.719-3.875,2.758
		c-1.029,0.9-1.035,3.502,0.134,4.421c1.259,0.988,2.798,1.704,4.316,2.259c2.245,0.82,4.553,1.514,6.883,2.046
		c3.883,0.886,7.682,1.745,11.851,1.32c2.535-0.259,5.559,0.395,8.042,2.281c1.423,1.081,3.555,1.368,5.423,1.694
		c3.156,0.552,6.528,0.354,9.495,1.38c4.162,1.438,8.23,0.584,12.344,0.671c0.979,0.021,1.959,0.27,2.925,0.479
		c2.728,0.59,5.552,0.935,8.144,1.898c3.03,1.126,5.832,0.102,8.668-0.312c3.575-0.521,7.078-1.234,10.663-0.155
		c3.536,1.063,6.949-0.326,10.343-0.85c4.485-0.692,8.64,0.198,12.876,1.27c1.793,0.454,3.688,0.922,5.501,0.811
		c7.667-0.474,15.123,1.132,22.655,1.996c1.719,0.198,3.484,0.218,5.209,0.086c3.616-0.277,7.097,0.335,10.427,1.597
		c5.715,2.165,11.575,3.302,17.687,3.155c5.754-0.138,11.438,0.56,17.154,1.155c5.158,0.537,10.414,0.127,15.626,0.159
		c1.813,0.012,3.638,0.246,5.438,0.112c3.391-0.253,6.766-0.726,10.152-1.053c1.049-0.102,2.115-0.039,3.173-0.036
		c3.598,0.009,7.208,0.22,10.792-0.006c5.729-0.361,11.453-0.902,17.156-1.568c4.902-0.572,9.762-1.497,14.657-2.129
		c3.962-0.512,7.952-0.801,11.926-1.228c1.318-0.142,2.646-0.315,3.93-0.636c4.129-1.033,8.219-2.23,12.364-3.181
		c2.008-0.459,4.142-0.362,6.155-0.801c1.165-0.254,2.254-1.004,3.274-1.685c0.309-0.207,0.496-1.003,0.362-1.405
		c-2.498-7.565,1.593-16.366,9.54-18.395c1.685-0.431,3.398-0.948,5.114-1.009c5.843-0.206,11.601-1.927,17.564-0.428
		c2.759,0.693,5.7,0.264,8.635-0.668c4.172-1.325,8.542-1.934,13.041-1.533c2.592,0.231,5.286-0.17,7.874-0.623
		c1.655-0.289,2.573,0.311,3.653,1.36c3.115,3.025,3.699,6.98,1.604,9.896c-1.271,1.767-2.894,3.275-4.211,5.012
		c-1.644,2.167-3.399,4.322-4.566,6.743c-0.483,1.003,0.004,3.034,0.789,3.991c3.438,4.197,8.389,5.864,13.428,7.117
		c4.154,1.032,8.353,2.09,12.593,2.49c3.395,0.319,6.883-0.284,10.321-0.571c2.27-0.189,4.57-0.355,6.773-0.879
		c2.45-0.581,4.825-1.509,7.201-2.374c1.952-0.711,3.593-2.868,6.014-1.194c2.132-1.111,3.896,0.057,5.295,1.288
		c1.907,1.68,3.585,3.676,5.085,5.737c0.585,0.805,0.413,2.156,0.598,3.257C513.896,482.193,514.039,482.912,514.228,483.934z
		 M417.636,387.142c-0.863-0.126-1.556-0.3-2.251-0.318c-5.209-0.137-10.418-0.296-15.628-0.314c-1.04-0.004-2.515,0.23-3.047,0.923
		c-1.907,2.486-3.409,5.279-5.24,7.83c-0.946,1.318-2.077,3.042-3.447,3.423c-4.616,1.284-9.34,2.388-14.093,2.901
		c-3.675,0.397-7.598,0.375-11.154-0.499c-4.37-1.073-8.535-3.093-12.676-4.955c-3.467-1.559-7.674-0.929-9.336,1.928
		c-1.689,2.906-4.505,4.25-7.396,5.162c-6.069,1.914-12.274,3.514-18.705,3.339c-4.388-0.119-8.873-0.231-13.118-1.204
		c-5.097-1.167-9.972-3.285-14.97-4.905c-1.784-0.579-3.573-1.492-5.483,0.042c-1.315,1.054-2.917,1.752-4.401,2.592
		c-0.927,0.523-1.914,0.95-2.803,1.529c-5.003,3.255-10.371,5.031-16.413,4.188c-1.391-0.194-2.81-0.669-4.166-0.529
		c-4.801,0.496-8.554-2.51-12.83-3.718c-2.961-0.837-5.629-2.708-8.433-4.106c-1.426-0.711-2.547-0.583-3.666,0.796
		c-2.25,2.774-4.915,5.154-8.296,6.463c-5.685,2.202-11.528,3.946-17.671,4.01c-2.422,0.025-4.93-0.479-7.256-1.202
		c-2.362-0.732-4.54-2.051-6.815-3.077c-2.118-0.954-4.235-1.916-6.396-2.768c-1.441-0.567-3.248-1.711-4.384-1.276
		c-3.951,1.516-7.638,3.7-11.508,5.448c-2.753,1.243-5.565,2.704-8.487,3.125c-2.765,0.399-5.731-0.28-8.563-0.759
		c-2.767-0.467-5.557-1.053-8.187-2.003c-3.12-1.126-6.104-2.645-9.095-4.099c-1.535-0.746-3.027-1.429-4.768-0.94
		c-2.502,0.703-4.512,2.306-6.681,3.633c-1.196,0.731-2.499,1.535-3.838,1.732c-3.131,0.46-6.315,0.558-9.475,0.832
		c-3.555,0.309-6.745-0.63-9.543-2.813c-0.891-0.695-1.562-1.681-2.47-2.346c-3.297-2.415-6.085-5.281-8.283-8.736
		c-0.869-1.365-2.011-1.874-3.769-1.451c-1.65,0.398-3.454,0.442-5.155,0.277c-3.168-0.309-5.218,0.627-5.546,2.889
		c-0.57,3.93-1.181,7.855-1.627,11.8c-0.104,0.925,0.123,2.092,0.637,2.848c2.563,3.769,6.56,5.144,10.791,5.517
		c2.106,0.186,3.298,0.938,4.178,2.652c0.19,0.37,0.434,0.856,0.769,0.984c1.617,0.613,3.284,1.092,4.915,1.672
		c3.636,1.292,7.245,2.664,10.897,3.906c1.674,0.57,3.417,1.246,5.144,1.287c3.196,0.077,6.318-0.559,9.618,0.062
		c5.251,0.988,10.63,1.347,15.97,1.796c4.712,0.397,9.447,0.504,14.165,0.846c1.272,0.093,2.501,0.709,3.775,0.845
		c2.407,0.254,4.837,0.283,7.25,0.496c4.931,0.433,9.854,0.959,14.786,1.368c1.118,0.093,2.283-0.314,3.392-0.19
		c4.449,0.496,8.883,1.121,13.326,1.67c0.702,0.086,1.423,0.059,2.133,0.028c3.25-0.139,6.582-0.817,9.731-0.325
		c4.477,0.699,8.902,0.821,13.391,0.733c2.231-0.043,4.477,0.237,6.704,0.486c1.996,0.224,3.965,0.786,5.961,0.88
		c4.188,0.197,8.386,0.157,12.58,0.267c6.67,0.176,13.338,0.458,20.009,0.572c3.536,0.061,7.101,0.087,10.609-0.284
		c3.727-0.395,7.383-1.428,11.105-1.915c5.314-0.696,10.658-1.174,15.994-1.696c4.837-0.473,9.673-1.113,14.522-1.253
		c5.382-0.156,10.778,0.233,16.168,0.262c2.81,0.016,5.629-0.431,8.43-0.318c4.273,0.172,8.515,0.042,12.751-0.476
		c4.001-0.489,8-0.988,12-1.487c3.888-0.484,7.792-0.868,11.657-1.493c3.598-0.583,7.136-1.533,10.733-2.115
		c2.873-0.464,5.79-0.752,8.697-0.869c3.009-0.121,6.13,0.245,8.624-1.851c2.173-1.827,4.585-2.563,7.359-2.594
		c2.451-0.027,4.021-1.833,4.115-4.255c0.104-2.653-0.154-5.47,0.652-7.915C416.557,402.692,415.424,394.799,417.636,387.142z
		 M125.43,560.633c0.832,0.24,1.276,0.491,1.712,0.478c4.067-0.132,7.929,0.868,11.742,2.105c1.447,0.47,2.798,1.335,4.269,1.607
		c2.207,0.409,4.5,0.335,6.723,0.678c5.146,0.795,10.251,1.873,15.413,2.524c2.838,0.357,5.934,0.69,8.587-0.084
		c2.582-0.754,4.267-0.222,6.246,1.095c1.433,0.954,3.04,2.035,4.671,2.236c5.98,0.737,11.996,1.398,18.013,1.573
		c5.256,0.152,10.5,1.056,15.805,0.255c1.954-0.296,4.026-0.076,5.98,0.987c1.85,1.007,3.93,1.796,6,2.145
		c3.016,0.509,6.108,0.659,9.175,0.743c6.408,0.176,12.821,0.186,19.23,0.312c2.197,0.044,4.398,0.41,6.586,0.324
		c4.766-0.188,9.524-0.568,14.285-0.878c3.04-0.199,6.079-0.582,9.117-0.577c3.745,0.005,7.486,0.381,11.232,0.498
		c4.527,0.141,9.058,0.151,13.586,0.272c2.537,0.068,5.087,0.485,7.603,0.318c3.462-0.23,6.919-0.742,10.339-1.354
		c5.275-0.943,10.734,0.925,15.995-1.658c2.607-1.278,5.966-0.987,8.965-1.517c3.372-0.594,6.527-1.963,9.92-2.647
		c4.051-0.817,8.007-2.556,11.725-4.445c3.742-1.901,7.291-4.281,10.65-6.813c3.53-2.663,5.678-5.938,4.465-10.942
		c-0.789-3.251-0.702-6.798,0.423-10.185c0.715-2.152,1.064-4.427,1.565-6.649c0.042-0.188,0.024-0.408-0.031-0.595
		c-0.608-2.059-4.085-4.599-6.226-4.897c-3.131-0.438-5.748-1.734-7.057-4.937c-0.253-0.619-1.123-1.453-1.647-1.412
		c-2.252,0.177-4.589,0.336-6.695,1.072c-3.644,1.273-7.339,1.896-11.157,2.248c-2.831,0.261-5.612,1.03-8.422,1.543
		c-0.999,0.182-2.013,0.343-3.026,0.39c-1.932,0.091-4.069-0.424-5.761,0.238c-3.829,1.498-8.338,0.281-11.779,3.113
		c-0.255,0.209-0.781,0.117-1.181,0.116c-2.991-0.012-5.985-0.13-8.972-0.024c-2.041,0.073-4.066,0.545-6.109,0.657
		c-1.041,0.057-2.101-0.388-3.159-0.428c-2.912-0.109-5.827-0.129-8.741-0.177c-2.92-0.048-5.841-0.048-8.76-0.143
		c-3.194-0.104-6.386-0.279-9.578-0.449c-1.599-0.085-3.193-0.31-4.792-0.334c-6.121-0.095-12.291,0.316-18.349-0.335
		c-4.684-0.504-9.217-0.206-13.791,0.314c-4.812,0.548-9.577,1.663-14.395,1.931c-6.026,0.335-12.099-0.184-18.127,0.124
		c-4.693,0.241-9.248-0.953-14.006-0.488c-4.294,0.42-8.737-0.611-13.109-1.06c-3.929-0.401-7.873-1.371-11.769-1.191
		c-4.177,0.194-7.213-2.636-11.077-3.093c-2.872-0.34-5.646-1.453-8.512-1.916c-4.397-0.71-8.837-1.15-13.257-1.72
		c-1.256-0.161-2.506-0.368-3.759-0.559c-3.666-0.559-7.39-0.871-10.979-1.745c-3.719-0.905-7.22-2.487-11.257-1.667
		c-2.136,0.435-4.448,0.26-6.649,0.041c-2.325-0.231-4.598-0.937-6.917-1.263c-2.819-0.396-5.696-1.015-8.489-0.792
		c-2.539,0.202-5.061,1.243-7.479,2.198c-3.723,1.471-6.792,3.868-9.19,7.372c3.041,0.783,5.924,2.12,8.794,2.092
		c2.71-0.026,4.809,1.361,7.286,1.746c3.399,0.529,6.673,1.809,10.048,2.552c2.891,0.636,5.857,0.922,8.775,1.448
		c3.015,0.544,6.007,1.677,9.016,1.699c7.779,0.058,14.886,2.527,22.013,5.164c1.274,0.472,2.745,0.613,4.117,0.578
		c3.724-0.093,7.447-0.554,11.165-0.502c2.992,0.043,6.14,0.142,8.92,1.089c3.269,1.116,6.501,1.402,9.845,1.453
		c2.599,0.039,5.203-0.003,7.796,0.145c7.407,0.42,14.816,0.839,22.213,1.408c6.312,0.484,12.607,1.18,18.91,1.773
		c3.097,0.291,6.197,0.544,9.292,0.852c2.931,0.29,5.993,0.19,8.755,1.043c5.049,1.559,10.055,1.622,15.226,1.163
		c4.599-0.408,9.237-0.429,13.859-0.496c4.812-0.07,9.629,0.082,14.44-0.001c4.278-0.073,8.563-0.608,12.825-0.438
		c4.193,0.168,8.207-0.285,12.239-1.349c2.036-0.537,4.198-0.695,6.314-0.805c2.979-0.155,6.045,0.307,8.936-0.235
		c4.815-0.902,9.313-3.089,14.422-3.03c3.208,0.036,6.425-0.922,9.64-1.419c3.663-0.567,7.339-1.057,10.989-1.692
		c4.604-0.803,9.19-1.709,13.778-2.604c0.512-0.1,1.12-0.282,1.45-0.642c2.001-2.18,4.069-2.166,6.697-0.944
		c2.281,1.062,3.62,2.795,2.975,5.271c-0.95,3.649-4.052,6.347-7.781,6.978c-4.065,0.687-8.108,1.504-12.159,2.276
		c-4.512,0.86-9.013,1.773-13.534,2.571c-1.256,0.221-2.288,0.358-2.79,1.829c-0.167,0.488-1.6,1.104-1.979,0.876
		c-4.061-2.457-8.323-1.346-12.515-0.817c-2.64,0.332-5.35,1.802-7.824,1.423c-6.062-0.928-11.327,1.438-16.813,3.012
		c-0.629,0.181-1.093,0.935-1.808,1.582c0.667,0.365,0.974,0.486,1.224,0.68c1.192,0.922,2.589,1.692,3.481,2.851
		c0.72,0.935,0.989,2.323,1.143,3.551c0.101,0.803-0.094,2.112-0.622,2.438c-1.637,1.006-3.504,1.51-5.5,0.918
		c-2.305-0.682-4.192-3.008-3.808-5.026c0.376-1.977,0.978-3.911,1.57-6.212c-0.859-0.16-1.872-0.542-2.867-0.5
		c-3.449,0.146-6.891,0.44-10.334,0.68c-0.269,0.018-0.537,0.045-0.805,0.072c-2.878,0.294-5.751,0.718-8.637,0.843
		c-2.572,0.112-5.159-0.165-7.739-0.162c-3.313,0.003-6.625,0.126-9.938,0.176c-1.798,0.027-3.599-0.046-5.395,0.025
		c-2.924,0.117-5.863,0.597-8.763,0.41c-3.648-0.234-7.265-0.97-10.891-1.517c-1.86-0.281-3.71-0.632-5.568-0.927
		c-0.254-0.04-0.531,0.096-0.795,0.087c-3.207-0.118-6.443-0.011-9.611-0.427c-5.865-0.77-11.591-2.816-17.643-1.729
		c-0.449,0.081-0.937-0.053-1.406-0.087c-3.546-0.257-7.089-0.562-10.639-0.757c-3.361-0.185-6.73-0.218-10.092-0.39
		c-3.137-0.159-6.27-0.398-9.403-0.628c-5.731-0.421-11.477-0.716-17.182-1.368c-2.06-0.236-3.995-0.414-6.101-0.247
		c-3.641,0.289-7.342-0.244-11.009-0.142c-1.05,0.028-2.834,0.907-2.98,1.652c-0.825,4.206-0.933,4.486-4.758,4.822
		c-1.605-1.672-2.287-3.784-1.801-5.916c0.347-1.526,0.014-2.1-1.283-2.523c-0.893-0.291-1.741-0.771-2.651-0.949
		c-3.27-0.64-6.541-1.403-9.848-1.678c-1.667-0.138-3.412,0.677-5.123,1.06c0.042,0.205,0.083,0.408,0.125,0.611
		c1.998,1.034,4.008,2.041,5.979,3.122c0.371,0.204,0.778,0.674,0.834,1.069C126.348,554.895,127.685,557.729,125.43,560.633z
		 M333.378,350.354c-1.253-0.098-2.114-0.097-2.949-0.243c-2.83-0.496-5.686-0.902-8.463-1.613
		c-2.803-0.719-5.489-1.896-8.293-2.607c-1.517-0.385-3.181-0.338-4.768-0.263c-1.787,0.084-3.561,0.598-5.342,0.605
		c-3.119,0.012-6.26-0.508-9.354-0.285c-5.36,0.388-10.725,0.973-16.02,1.875c-2.687,0.458-5.155,0.228-7.691-0.426
		c-2.609-0.673-4.905-2.528-7.908-1.758c-1.815,0.465-2.447,1.205-1.788,2.989c0.961,2.603,0.234,5.743-2.259,6.611
		c-3.355,1.168-6.031,3.776-9.93,3.935c-2.417,0.1-4.688-0.205-6.772-0.953c-1.667-0.598-3.458-1.722-4.031-3.892
		c-0.342-1.295-0.966-2.542-1.627-3.718c-0.481-0.857-1.636-1.496-1.776-2.35c-0.316-1.913-1.53-1.682-2.792-1.615
		c-3.044,0.16-6.086,0.386-9.132,0.483c-3.837,0.122-7.679,0.1-11.515,0.237c-0.852,0.031-1.69,0.468-2.447,0.692
		c0.021,0.419-0.002,0.507,0.032,0.544c2.412,2.681,4.318,5.689,5.798,8.972c0.122,0.271,0.255,0.582,0.236,0.864
		c-0.325,4.706-2.036,9.033-3.807,13.322c-0.315,0.764-1.149,1.443-1.909,1.862c-0.966,0.532-2.08,0.854-3.168,1.1
		c-3.613,0.814-7.211,1.859-10.875,2.239c-4.014,0.416-7.97-0.456-11.775-1.924c-1.301-0.503-2.135-1.169-2.465-2.583
		c-0.468-2.009-1.122-3.974-1.66-5.968c-0.095-0.353-0.077-0.77,0.005-1.131c0.629-2.769,1.306-5.526,1.925-8.297
		c0.193-0.866,0.073-1.84,0.415-2.626c0.949-2.184,2.096-4.282,3.092-6.446c0.222-0.482,0.147-1.101,0.219-1.753
		c-0.663,0-1.058-0.018-1.452,0.002c-2.668,0.137-5.335,0.357-8.005,0.407c-4.132,0.079-8.272-0.084-12.398,0.095
		c-3.479,0.15-6.865,1.655-10.43,0.788c-1.875-0.456-2.609,0.639-3.807,1.933c-1.332,1.442-2.372,4.074-5.293,3.479
		c-0.383-0.078-1.129,0.539-1.361,1.006c-0.703,1.412-1.234,2.91-1.744,4.156c-1.631,0.517-3.092,1.279-4.599,1.387
		c-2.134,0.152-4.301-0.23-6.456-0.292c-4.566-0.13-9.157,0.036-13.6-1.339c-2.118-0.656-4.339-1.349-4.877-3.816
		c-0.577-2.643-1.396-3.193-3.898-2.322c-2.613,0.908-5.264,1.744-7.952,2.391c-2.939,0.707-5.967,1.043-8.903,1.762
		c-2.464,0.602-4.853,1.512-7.27,2.303c-1.426,0.467-2.921,0.812-4.242,1.492c-2.515,1.296-4.927,2.792-7.392,4.21
		c0.801,1.598,0.544,3.241-0.636,4.797c-1.916,2.525-1.09,5.26-0.029,7.643c0.983,2.207,3.574,2.736,5.724,2.51
		c5.94-0.625,11.845-1.59,17.753-2.489c1.986-0.303,3.535,0.253,4.208,2.111c0.841,2.321,1.391,4.745,2.138,7.102
		c0.624,1.966,1.112,4.029,2.084,5.819c1.774,3.265,4.764,4.329,8.47,3.964c3.651-0.358,6.076-2.487,7.992-5.176
		c1.77-2.486,3.969-3.728,6.907-3.997c1.277-0.117,6.621,2.049,7.651,3.176c2.894,3.167,6.435,5.43,10.54,6.502
		c3.271,0.855,6.683,1.363,10.061,1.585c4.92,0.323,9.438-0.923,10.649-7.132c0.34-1.743,1.559-3.489,2.809-4.828
		c1.028-1.099,2.706-2.246,4.087-2.236c4.074,0.029,7.759,1.602,10.467,4.742c1.946,2.257,4.207,3.872,6.969,4.87
		c0.757,0.274,1.483,0.643,2.247,0.895c4.594,1.511,8.9,3.768,14.01,3.771c5.837,0.003,10.056-3.237,10.546-9.177
		c0.544-6.592,5.71-7.968,10.925-7.325c4.673,0.576,8.383,3.443,12.091,6.065c3.23,2.286,6.272,4.826,10.215,5.848
		c3.673,0.953,7.268,2.825,11.186,1.207c3.516-1.451,7.689-2.311,8.157-7.157c0.384-3.987,2.759-6.481,6.212-7.557
		c2.366-0.736,5.248-1.625,7.549,0.673c3.208,3.204,6.842,5.685,11.207,7.096c2.35,0.759,4.594,1.84,6.909,2.716
		c1.441,0.546,2.903,1.308,4.393,1.405c4.796,0.311,9.609,0.508,14.414,0.463c4.821-0.044,8.705-1.813,8.812-8.741
		c0.013-0.834,0.512-1.877,1.132-2.44c1.413-1.281,2.906-2.621,4.612-3.397c2.998-1.364,5.988-0.619,8.833,0.857
		c1.356,0.704,2.726,1.458,4.179,1.882c2.547,0.745,5.227,1.065,7.734,1.909c2.953,0.993,5.794,2.327,8.662,3.562
		c3.625,1.561,7.417,1.84,11.236,1.254c3.836-0.589,6.971-4.453,6.214-7.858c-0.603-2.714-0.573-4.959,1.149-7.332
		c1.994-2.748,5.69-4.711,8.978-3.779c2.475,0.701,5.356,0.383,7.311,2.609c0.197,0.225,0.598,0.33,0.92,0.378
		c4.166,0.627,8.317,1.447,12.508,1.787c4.348,0.352,6.921-1.85,7.817-6.049c0.482-2.262,0.04-2.947-2.157-3.739
		c-2.078-0.75-4.112-1.621-6.172-2.425c-1.711-0.667-3.315-1.163-5.164-0.01c-0.954,0.595-2.466,0.743-3.607,0.512
		c-4.84-0.981-9.622-2.243-14.454-3.264c-1.493-0.315-3.081-0.156-4.621-0.277c-4.9-0.385-9.792-0.906-14.699-1.167
		c-3.496-0.186-4.735,0.933-5.111,4.469c-0.233,2.198-1.526,3.726-3.119,4.686c-2.593,1.564-5.479,2.648-8.265,3.881
		c-0.453,0.2-1.034,0.185-1.549,0.157c-2.322-0.128-4.642-0.296-6.963-0.454c-3.629-0.247-7.107-1.235-8.783-4.664
		c-1.744-3.569-3.188-7.421-1.601-11.565C332.875,351.935,333.059,351.31,333.378,350.354z M202.878,479.255
		c-2.726-0.151-5.082-0.216-7.423-0.43c-2.396-0.219-4.984-0.092-7.123-0.989c-4.415-1.851-8.631-1.042-12.917,0.003
		c-0.722,0.177-1.868,0.873-1.858,1.307c0.019,0.782,0.595,1.747,1.234,2.284c2.449,2.06,2.883,4.09,1.167,6.749
		c-2.173,3.365-4.884,6.094-8.45,8.102c-2.187,1.23-4.01,1.575-6.287,0.427c-2.565-1.293-4.4-5.471-2.866-7.355
		c1.377-1.691,2.85-3.358,4.524-4.741c2.702-2.231,5.603-4.221,8.472-6.351c-4.009-0.742-8.189-1.242-12.452-0.165
		c-1.48,0.375-3.009,0.686-4.527,0.753c-2.215,0.099-4.456,0.093-6.657-0.137c-1.613-0.168-3.212-0.677-4.76-1.201
		c-1.553-0.526-2.982-1.568-4.56-1.844c-4.212-0.74-8.479-1.159-12.715-1.773c-1.678-0.243-3.338-0.98-4.993-0.938
		c-3.814,0.098-7.483,1.344-11.42,1.125c-3.515-0.195-6.651-0.574-9.282-3.136c-0.599-0.583-1.644-0.85-2.523-0.97
		c-1.836-0.251-3.724-0.163-5.546-0.472c-5.465-0.927-10.897-2.064-16.372-2.924c-1.427-0.224-2.821,0.56-3.062,2.258
		c-0.355,2.498-0.615,5.012-0.817,7.527c-0.047,0.582,0.304,1.196,0.472,1.796c0.527-0.232,1.133-0.365,1.567-0.712
		c2.271-1.821,4.419-3.803,6.761-5.525c2.746-2.019,5.993-0.856,7.294,2.309c0.964,2.346,0.076,4.706-0.701,6.545
		c-1.834,4.345-5.705,6.955-9.833,9.124c-1.618,0.851-3.851,1.001-4.533,3.647c1.324,0.231,2.639,0.313,3.85,0.709
		c1.74,0.57,3.351,1.591,5.113,2.018c2.627,0.636,5.349,0.867,8.009,1.383c1.116,0.216,2.203,1.089,3.257,1.015
		c2.459-0.173,4.441,0.952,6.629,1.66c2.244,0.728,4.723,0.703,7.077,1.126c4.913,0.882,9.775,1.855,14.822,2.062
		c4.296,0.176,8.581-0.672,12.994,1.149c4.026,1.662,8.752,1.612,13.161,2.372c1.622,0.278,3.205,0.944,4.826,1.029
		c3.747,0.197,7.553-0.205,11.247,0.296c3.659,0.495,7.245,1.684,10.794,2.788c2.252,0.7,4.303,2.212,6.579,2.637
		c4.191,0.783,8.474,1.15,12.734,1.47c3.141,0.236,6.312,0.036,9.462,0.191c2.53,0.124,5.044,0.589,7.575,0.724
		c2.996,0.16,6.001,0.102,9.001,0.185c4.718,0.132,9.436,0.354,14.155,0.428c1.659,0.027,3.324-0.385,4.985-0.383
		c4.272,0.006,8.545,0.163,12.818,0.197c2.863,0.022,5.728-0.12,8.591-0.087c7.278,0.084,14.555,0.205,21.833,0.35
		c4.97,0.098,9.938,0.306,14.908,0.381c4.676,0.071,9.357,0.139,14.03,0.001c2.925-0.086,5.834-0.611,8.759-0.837
		c3.579-0.276,7.186-0.282,10.743-0.712c3.113-0.376,6.156-1.311,9.266-1.749c2.473-0.349,5.03-0.128,7.494-0.512
		c3.022-0.473,5.967-1.439,8.984-1.957c3.207-0.551,6.525-0.546,9.677-1.286c4.597-1.081,9.125-2.491,13.608-3.985
		c3.407-1.135,6.739-2.527,10.016-4.001c1.07-0.482,2.397-1.438,2.67-2.433c0.53-1.937,0.677-4.081,0.484-6.092
		c-0.476-4.964-1.36-9.888-1.835-14.852c-0.381-3.979-0.421-4.234-4.316-4.148c-3.322,0.074-6.401,0.686-9.255,2.782
		c-1.739,1.276-4.15,1.689-6.309,2.323c-1.204,0.353-2.68,0.038-3.735,0.593c-3.077,1.616-6.338,1.777-9.686,2.019
		c-3.856,0.279-7.678,1.018-11.519,1.529c-6.362,0.848-12.727,1.669-19.089,2.512c-1.064,0.14-2.12,0.475-3.181,0.478
		c-9.099,0.024-18.197,0.011-27.296-0.031c-3.687-0.018-7.373-0.162-11.06-0.193c-1.102-0.009-2.215,0.307-3.306,0.233
		c-2.446-0.166-4.876-0.575-7.323-0.719c-4.377-0.257-8.762-0.371-13.142-0.596c-1-0.051-2.01-0.529-2.98-0.437
		c-3.901,0.371-7.73,0.506-11.276-1.593c-0.33-0.196-0.773-0.243-1.171-0.274c-3.271-0.251-6.336-1.459-9.813-1.092
		c-4.029,0.423-8.163,0.228-12.29-0.564c-5.458-1.048-11.076-1.238-16.593-2.024c-1.444-0.206-2.615,0.032-3.009,1.157
		c-0.219,0.624,0.612,1.979,1.334,2.497c1.608,1.151,1.957,2.546,0.814,3.912c-1.997,2.386-4.148,4.675-6.461,6.754
		c-2.661,2.392-5.71,4.285-7.133,7.889c-1.279,3.24-3.858,4.261-7.337,3.389c-1.351-0.338-2.646-1.045-4.004-1.168
		c-1.745-0.158-2.071-1.218-1.816-2.462c0.743-3.625,1.92-7.304,4.598-9.808c4.358-4.075,8.666-8.351,14.268-10.842
		C200.151,480.401,201.395,479.888,202.878,479.255z M91.357,555.581c1.696-0.116,2.497-1.35,2.054-3.258
		c-0.235-1.011-0.713-2.11-0.513-3.05c0.429-2.012,0.935-4.113,1.948-5.866c1.173-2.024,0.113-2.53-1.384-2.903
		c-2.963-0.738-5.941-1.44-8.943-1.998c-3.401-0.632-6.823-1.203-10.26-1.571c-1.513-0.161-2.736,0.385-3.472,2.205
		c-1.152,2.849,0.644,5.346,0.424,8.032c-0.035,0.425,0.472,0.935,0.805,1.341c2.231,2.719,5.566,3.687,8.612,4.787
		C84.034,554.531,87.767,554.859,91.357,555.581z M195.812,353.115c-0.091-0.171-0.183-0.341-0.274-0.512
		c-1.282,0.674-2.895,1.06-3.782,2.079c-2.576,2.958-2.437,8.103,2.471,9.309c0.966,0.237,1.875,0.708,2.817,1.049
		c3.479,1.26,5.264,0.166,6.222-3.406C204.155,358.321,200.323,353.401,195.812,353.115z M126.687,338.601
		c-3.16,0.557-5.277,3.24-4.831,6.384c0.19,1.339-0.03,3.183,1.975,3.146c2.243-0.042,4.508-0.376,6.707-0.848
		c2.579-0.554,5.124-1.31,7.625-2.153c0.836-0.283,1.49-1.106,2.228-1.683c-0.667-0.463-1.273-1.103-2.013-1.361
		c-2.743-0.955-5.523-1.807-8.304-2.652C128.963,339.096,127.817,338.875,126.687,338.601z M341.103,356.794
		c3.047,0,6.06-0.004,9.074,0.001c1.205,0.002,2.322-0.347,2.172-1.732c-0.111-1.021-0.59-2.147-1.25-2.939
		c-2.499-3.001-4.587-2.432-7.85-0.257C341.824,352.818,339.755,353.989,341.103,356.794z M111.782,549.219
		c2.208-0.895,4.122-1.668,6.034-2.442c0.021-0.164,0.041-0.329,0.062-0.493c-1.563-0.522-3.094-1.268-4.7-1.504
		c-1.589-0.234-3.254,0.044-5.241,0.11C109.553,546.709,110.728,548.032,111.782,549.219z M111.694,557.905
		c-1.548-1.395-2.788-0.949-3.98,1.404C109.228,558.776,110.356,558.378,111.694,557.905z"/>
	<path fill-rule="evenodd" clip-rule="evenodd" fill="#FFFFFF" d="M556.605,342.685c0.475-1.172,0.821-2.156,1.265-3.093
		c1.088-2.296,2.338-4.428,4.699-5.737c4.375-2.424,8.502-5.405,13.077-7.333c6.127-2.582,12.544-4.508,18.908-6.483
		c6.313-1.96,12.903-0.781,19.344-1.331c3.615-0.309,7.18-1.194,10.784-1.694c3.031-0.419,6.081-0.749,9.135-0.952
		c4.53-0.301,8.859,0.806,13.188,2.023c1.779,0.501,3.694,0.643,5.558,0.708c3.394,0.121,6.793,0.096,10.189,0.07
		c5.272-0.04,10.241,0.879,14.521,4.247c0.893,0.703,1.827,1.461,2.871,1.835c1.533,0.549,2.221,1.83,2.523,3.063
		c0.496,2.017,1.795,3.156,3.432,3.949c2.967,1.436,4.11,3.899,4.231,6.963c0.033,0.821-0.247,1.731-0.628,2.476
		c-0.602,1.175-1.453,2.219-2.121,3.364c-1.149,1.974-3.498,2.967-5.779,2.503c-1-0.204-2.112,0.032-3.069-0.266
		c-1.976-0.614-2.146-2.175-1.815-3.983c0.138-0.754,1.093-1.638-0.304-2.376c-1.316-0.695-2.458-1.613-4.027-0.64
		c-1.3,0.807-2.63,1.579-3.997,2.265c-5.711,2.86-11.354,5.885-17.197,8.448c-3.943,1.73-8.112,3.081-12.308,4.056
		c-3.19,0.741-6.584,0.595-9.882,0.898c-3.707,0.339-7.401,0.846-11.115,1.089c-6.543,0.428-13.17,0.224-19.624,1.196
		c-5.957,0.898-11.559-1.104-17.363-0.891c-2.79,0.103-5.586-0.012-8.379,0.018c-1.222,0.013-2.841-0.312-3.568,0.327
		c-1.105,0.97-1.608,2.636-2.327,4.028c-0.177,0.342-0.089,0.854-0.314,1.132c-1.386,1.713-0.574,3.35,0.692,4.3
		c1.907,1.43,2.633,3.251,2.828,5.809c0.936-0.663,1.608-1.065,2.195-1.566c3.976-3.386,8.353-4.221,13.49-2.998
		c2.465,0.587,5.244-0.148,7.882-0.284c0.585-0.029,1.355-0.3,1.723-0.03c1.542,1.138,3.086,0.381,4.116-0.383
		c3.393-2.517,7.393-2.739,11.253-3.24c5.465-0.708,10.987-1.025,16.493-1.373c5.425-0.343,10.913-0.137,16.278-0.866
		c5.522-0.751,10.936-2.326,16.388-3.572c1.889-0.432,3.798-0.837,5.621-1.474c3.007-1.051,5.941-2.307,8.925-3.43
		c3.03-1.14,6.026-2.478,9.417-1.723c1.979,0.441,3.282,2.235,2.389,4.011c-0.86,1.712-2.052,3.589-3.615,4.551
		c-3.321,2.042-6.926,3.666-10.529,5.192c-1.391,0.589-3.141,0.269-4.643,0.674c-5.35,1.444-10.593,3.37-16.008,4.456
		c-5.874,1.178-11.882,1.762-17.855,2.346c-6.683,0.654-13.387,1.17-20.093,1.454c-4.646,0.197-9.328,1.034-13.979-0.234
		c-1.382-0.377-2.547,0.022-3.844,1.052c-2.917,2.317-6.553,3.161-10.226,3.263c-3.929,0.109-7.867-0.159-11.802-0.228
		c-1.586-0.028-2.523,1.088-2.469,2.4c0.172,4.154-2.402,6.959-4.459,10.066c-0.893,1.35-1.703,2.705-3.381,3.191
		c-0.118,0.035-0.245,0.146-0.306,0.257c-2.13,3.925-6.486,5.628-9.056,9.168c-2.103,2.894-4.729,5.403-6.91,8.247
		c-1.117,1.457-1.612,3.378-2.667,4.898c-1.515,2.183-0.798,4.353-0.548,6.639c0.305,2.797,0.189,5.639,0.318,8.459
		c0.091,1.996,0.19,3.999,0.447,5.978c0.508,3.899,1.066,7.795,1.763,11.664c0.101,0.564,1.088,1.398,1.638,1.378
		c2.273-0.087,4.406-0.187,6.623,0.866c1.135,0.538,2.851-0.008,4.273-0.245c5.71-0.948,11.38-0.083,17.079,0.095
		c5.309,0.165,10.524,2.166,15.9,0.796c1.407-0.359,2.834-0.771,4.271-0.866c3.731-0.247,7.472-0.392,11.211-0.465
		c7.403-0.146,14.811-0.148,22.212-0.342c4.457-0.117,8.936-0.269,13.354-0.805c3.828-0.465,7.569-1.61,11.384-2.236
		c2.498-0.409,5.095-0.231,7.585-0.669c3.994-0.702,7.92-1.778,11.905-2.537c2.534-0.482,5.125-0.645,7.683-1.015
		c2.469-0.357,4.924-0.817,7.392-1.192c3.191-0.485,6.4-0.859,9.581-1.409c4.069-0.703,8.137-1.449,12.167-2.347
		c2.002-0.447,3.959-1.175,5.86-1.962c1.359-0.564,2.216-1.478,1.09-3.128c-1.831-2.682-2.084-5.871-2.272-8.945
		c-0.339-5.557-0.288-11.136-0.531-16.699c-0.063-1.44-0.413-2.951-1.018-4.25c-0.329-0.705-1.426-1.365-2.251-1.473
		c-3.564-0.464-6.938-1.365-9.973-3.361c-1.724-1.134-3.448-2.273-5.218-3.332c-1.879-1.125-3.515-0.911-4.959,0.75
		c-3.396,3.903-7.919,5.897-12.661,7.416c-4.38,1.402-8.858,2.501-13.29,3.745c-2.242,0.629-4.444,1.472-6.724,1.88
		c-2.861,0.512-5.779,0.788-8.685,0.966c-3.914,0.24-7.847,0.464-11.761,0.352c-2.054-0.06-4.15-0.672-6.104-1.377
		c-1.272-0.46-0.979-3.313,0.278-4.345c4.184-3.431,9.019-4.305,14.303-4.055c3.44,0.162,6.854-0.081,9.944-2.302
		c1.378-0.991,3.553-1.353,5.317-1.24c6.012,0.384,11.42-1.597,16.854-3.672c1.51-0.576,3.085-0.985,4.916-1.56
		c-1.221-2.554-2.357-4.581-3.163-6.73c-0.527-1.407-0.78-2.991-0.792-4.5c-0.017-2.441,0.457-4.892,0.365-7.325
		c-0.085-2.291,1.036-4.093,1.811-6.045c0.616-1.556,2.8-1.925,4.344-1.427c3.25,1.046,3.597,3.446,3.975,6.337
		c0.429,3.27,1.491,6.479,2.527,9.631c0.199,0.606,1.632,1.289,2.359,1.162c5.166-0.904,9.605-0.426,13.668,3.689
		c2.418,2.45,5.969,4.147,9.319,5.215c3.82,1.218,6.479,2.924,7.227,7.02c0.676,3.705,1.426,7.396,2.156,11.092
		c0.064,0.323,0.172,0.662,0.353,0.933c4.127,6.234,3.874,13.363,4.188,20.378c0.121,2.713-0.029,5.33-1.976,7.514
		c-0.329,0.37-0.474,0.963-0.569,1.478c-0.597,3.177-2.811,5.083-6.035,5.774c-5.462,1.172-10.856,2.653-16.306,3.885
		c-2.143,0.485-4.359,0.64-6.54,0.963c-4.592,0.68-9.18,1.387-13.775,2.05c-1.973,0.284-3.981,0.357-5.93,0.75
		c-4.4,0.889-8.756,2.013-13.166,2.851c-2.423,0.46-4.924,0.492-7.381,0.798c-1.984,0.247-3.952,0.623-5.931,0.928
		c-3.067,0.472-6.126,1.038-9.209,1.375c-5.495,0.602-10.999,1.12-16.509,1.563c-5.664,0.456-11.334,0.95-17.011,1.109
		c-4.177,0.117-8.371-0.465-12.55-0.376c-2.659,0.057-5.412,0.443-7.933,1.265c-3.947,1.288-7.818,0.471-11.725,0.284
		c-3.551-0.17-7.111-0.744-10.64-0.564c-3.178,0.162-6.309,1.144-9.472,1.696c-5.015,0.875-9.851,0.847-14.07-2.669
		c-1.902-1.586-3.95-2.196-6.37-2.275c-2.348-0.077-2.971-2.135-4.117-3.592c-0.801-1.018-1.462-2.192-2.417-3.036
		c-2.328-2.062-3.274-4.545-3.403-7.646c-0.119-2.863-0.882-5.696-1.246-8.558c-0.156-1.236-0.099-2.515-0.008-3.766
		c0.315-4.326,0.673-8.648,1.058-12.968c0.044-0.497,0.374-0.965,0.557-1.452c0.257-0.689,0.501-1.383,0.747-2.076
		c0.107-0.305,0.107-0.76,0.32-0.9c2.978-1.964,4.098-5.199,5.666-8.136c0.742-1.391,1.602-2.72,2.416-4.071
		c0.099-0.162,0.228-0.35,0.389-0.422c4.305-1.914,6.647-6.008,9.994-8.985c3.254-2.895,3.998-6.746,4.947-10.816
		c0.811-3.477,0.257-6.613-0.199-9.845c-0.188-1.329-1.32-2.584-2.198-3.741c-1.398-1.845-1.723-5.322-0.423-7.221
		c2.495-3.646,3.094-7.839,3.703-12.066c0.192-1.335,0.623-2.791,1.408-3.849C557.161,344.968,557.405,343.812,556.605,342.685z
		 M668.354,331.409c-1.507-0.93-2.594-2.167-3.71-2.194c-5.249-0.131-10.509,0.202-15.76,0.098
		c-2.693-0.053-5.297-0.401-7.785,1.092c-0.772,0.463-1.914,0.492-2.87,0.435c-1.962-0.115-3.911-0.604-5.866-0.604
		c-2.544-0.001-5.085,0.385-7.632,0.489c-3.635,0.149-7.277,0.329-10.911,0.243c-3.72-0.087-7.461-0.884-11.141-0.627
		c-3.816,0.267-7.694,1.056-11.32,2.284c-4.725,1.601-9.289,3.729-13.796,5.895c-1.886,0.906-3.445,2.493-5.153,3.771
		c0.08,0.23,0.161,0.46,0.241,0.689c0.816,0.131,1.629,0.294,2.45,0.388c4.19,0.48,8.381,0.962,12.576,1.405
		c4.137,0.438,8.271,1.088,12.418,1.17c4.256,0.084,8.521-0.465,12.787-0.63c4.714-0.181,9.438-0.142,14.147-0.385
		c3.692-0.19,7.443-0.325,11.036-1.095c4.684-1.003,9.29-2.457,13.829-4.009c3.244-1.11,6.387-2.577,9.458-4.118
		C663.629,334.563,665.719,333.046,668.354,331.409z"/>
	<path fill-rule="evenodd" clip-rule="evenodd" fill="#FFFFFF" d="M711.034,609.05c-2.388,0-4.802-0.215-7.155,0.064
		c-2.021,0.24-3.963,1.089-5.959,1.59c-2.51,0.628-5.038,1.178-7.561,1.758c-1.839,0.422-3.707,0.743-5.514,1.273
		c-4.931,1.447-9.773,3.261-14.773,4.388c-3.643,0.821-7.485,0.729-11.228,1.135c-4.846,0.526-9.67,1.245-14.521,1.692
		c-5.534,0.511-11.097,0.725-16.629,1.254c-2.082,0.199-4.127,0.87-6.165,1.417c-2.113,0.567-4.163,1.449-6.306,1.815
		c-2.31,0.395-4.693,0.463-7.045,0.473c-5.147,0.021-10.24,0.209-15.367,1.035c-4.104,0.662-8.383,0.297-12.583,0.271
		c-3.278-0.019-6.681-0.823-9.8-0.177c-3.658,0.757-6.88,0.504-9.52-1.85c-1.781-1.589-4.121-3.057-4.299-6.004
		c-0.077-1.267-1.341-1.466-2.605-0.634c-3.146,2.069-6.407,3.388-10.168,1.486c-0.697-0.353-1.684-0.204-2.299-0.632
		c-0.945-0.657-1.971-1.476-2.454-2.472c-1.061-2.188-2.163-4.465-2.589-6.824c-0.56-3.104-0.826-6.347-0.596-9.484
		c0.268-3.646-0.174-7.15-0.568-10.739c-0.452-4.091-1.747-8.13-0.762-12.396c0.496-2.153,0.06-4.518,0.079-6.786
		c0.035-3.855,1.415-7.342,3.489-10.454c0.515-0.772,2.431-0.929,3.663-0.835c2.466,0.187,4.848,2.657,5.17,5.194
		c0.486,3.82,0.944,7.651,1.182,11.492c0.137,2.198-0.014,4.35-1.198,6.489c-0.795,1.436-1.004,3.604-0.596,5.224
		c1.268,5.038,1.028,10.119,1.102,15.207c0.016,1.067,0.075,2.157,0.31,3.193c0.748,3.302,2.759,4.709,6.142,4.812
		c2.191,0.067,4.368,0.523,6.553,0.791c1.286,0.158,3.018-0.188,3.782,0.52c3.052,2.826,6.465,3.433,10.472,3.161
		c3.704-0.251,7.477,0.525,11.184,0.287c4.083-0.263,8.11-1.278,12.188-1.741c1.955-0.222,3.977,0.216,5.952,0.101
		c3.311-0.191,6.654-0.35,9.898-0.967c2.961-0.563,5.791-1.787,8.718-2.573c1.008-0.27,2.155-0.243,3.203-0.101
		c5.273,0.718,10.379-0.23,15.531-1.197c3.799-0.713,7.696-0.899,11.546-1.36c4.705-0.563,9.456-0.917,14.091-1.847
		c3.069-0.616,5.936-2.188,8.952-3.142c3.525-1.114,7.112-2.035,10.68-3.016c3.202-0.881,6.396-1.807,9.627-2.563
		c2.097-0.491,4.249-0.948,6.388-1.006c3.411-0.092,6.526-1.112,9.705-2.179c2.271-0.763,4.718-1.012,7.095-1.457
		c2.394-0.448,4.092-1.545,4.859-4.074c0.594-1.946,1.816-3.698,2.454-5.636c0.633-1.926,1.365-4.014,1.212-5.964
		c-0.482-6.155-1.661-12.264-1.981-18.42c-0.205-3.942,0.389-7.983,2.297-11.644c0.495-0.95,1.112-1.917,1.283-2.941
		c0.31-1.848,1.524-2.264,3.027-2.274c1.668-0.013,3.576-0.621,4.625,1.413c0.212,0.41,0.419,0.86,0.471,1.31
		c0.396,3.351,0.77,6.703,1.109,10.06c0.088,0.861,0.242,1.802,0.003,2.598c-1.085,3.617-0.456,7.201,0.548,10.606
		c1.245,4.228,0.893,8.361,0.232,12.53c-0.49,3.097-1.201,6.166-1.954,9.212c-0.263,1.072-0.784,2.161-1.455,3.038
		c-2.153,2.816-4.242,5.723-6.71,8.248c-3.155,3.23-7.26,5.014-11.521,6.411c-1.448,0.475-2.844,1.106-4.289,1.587
		c-0.828,0.275-1.707,0.392-2.564,0.58C711.094,609.269,711.063,609.159,711.034,609.05z"/>
	<path fill-rule="evenodd" clip-rule="evenodd" fill="#FFFFFF" d="M709.069,526.617c2.321-3.039,5.83-2.842,8.884-3.835
		c1.498-0.487,2.885-1.339,4.29-2.085c0.807-0.428,1.521-1.028,2.325-1.458c1.739-0.93,1.922-2.948,1.393-4.03
		c-1.005-2.061,0.276-3.689,0.21-5.506c-0.095-2.693-0.089-5.391-0.184-8.084c-0.084-2.392-0.196-4.787-0.396-7.171
		c-0.165-1.969-0.579-3.918-0.703-5.886c-0.201-3.205-0.365-6.422-0.325-9.63c0.023-1.833,0.653-3.659,0.684-5.493
		c0.023-1.314-0.657-2.626-0.738-3.957c-0.18-2.913-0.271-5.839-0.217-8.757c0.034-1.808,0.753-3.154,3.157-2.621
		c5.791,1.283,8.747,3.417,8.991,10.004c0.159,4.275,0.261,8.562,0.669,12.816c0.229,2.384,1.143,4.694,1.545,7.072
		c0.388,2.286,0.481,4.62,0.764,6.925c0.385,3.119,0.818,6.232,1.244,9.345c0.407,2.975,0.944,5.938,1.219,8.924
		c0.271,2.956,0.187,5.952-1.406,8.588c-0.47,0.781-1.419,1.45-2.295,1.778c-4.369,1.639-7.777,4.559-11.032,7.773
		c-4.148,4.099-9.42,4.544-14.366,2.668c-2.711-1.027-4.166-0.405-6.298,0.656c-4.423,2.203-8.934,4.067-14.021,4.605
		c-3.723,0.394-7.422,1.693-10.951,3.054c-3.765,1.45-7.67,0.91-11.475,1.514c-1.098,0.174-2.192,0.372-3.271,0.632
		c-5.003,1.205-9.979,2.529-15.011,3.606c-1.73,0.371-3.588,0.169-5.389,0.195c-2.795,0.041-5.29,1.181-7.831,2.131
		c-4.712,1.758-9.521,2.682-14.522,1.618c-2.297-0.489-4.173,0.538-6.168,1.3c-6.027,2.302-11.985,4.34-18.723,2.691
		c-4.671-1.144-9.49-0.243-14.266,0.591c-5.327,0.929-10.697,2.614-16.199,0.955c-1.203-0.362-2.318-1.047-3.534-1.329
		c-1.338-0.311-2.867-0.753-4.102-0.397c-4.719,1.358-9.243,0.835-13.831-0.563c-1.268-0.387-2.752-0.159-4.127-0.063
		c-2.324,0.161-3.361-0.521-3.782-2.853c-0.421-2.336-0.913-4.681-1.031-7.039c-0.075-1.495,0.495-2.828,2.218-3.629
		c1.782-0.828,3.332-2.212,5.471-1.528c1.433,0.456,2.874,0.95,4.205,1.634c2.76,1.417,5.857,1.654,8.695,1.467
		c4.713-0.311,9.229-0.062,13.657,1.509c3.395,1.204,6.766,0.45,10.152,0.056c5.335-0.622,10.663-1.333,16.013-1.768
		c1.661-0.136,3.376,0.637,5.082,0.747c1.871,0.121,3.854,0.316,5.621-0.152c4.324-1.147,8.521-2.771,12.837-3.962
		c1.459-0.403,3.183-0.375,4.673-0.038c3.165,0.717,6.048,0.361,8.959-1.057c4.981-2.427,10.349-2.853,15.823-3.049
		c3.774-0.136,7.515-1.105,11.28-1.633c2.175-0.306,4.365-0.594,6.558-0.677c3.761-0.144,7.304-1.031,10.892-2.166
		c2.625-0.83,5.252-1.766,8.008-2.351c3.702-0.784,7.273-2.438,10.72-4.094c2.576-1.238,6.277-1.182,8.484,0.771
		C707.991,525.732,708.405,526.062,709.069,526.617z"/>
	<path fill-rule="evenodd" clip-rule="evenodd" fill="#FFFFFF" d="M625.984,515.659c0.568-2.049,0.133-3.197-2.089-5.598
		c-0.595,0.346-1.245,0.66-1.827,1.071c-4.793,3.374-9.99,3.271-14.837,0.745c-5.817-3.032-8.602-8.201-9.132-14.906
		c-0.247-3.13-0.157-5.921,0.865-8.867c1.121-3.222,2.867-4.879,6.339-5.233c0.998-0.102,1.984-0.497,2.973-0.483
		c2.092,0.028,3.993,2.049,4.485,4.17c0.451,1.943,0.419,3.693-0.38,5.58c-0.692,1.641,1.565,7.142,3.171,8.056
		c0.568,0.324,1.714,0.395,2.139,0.037c0.658-0.553,1.203-1.542,1.299-2.401c0.254-2.294-0.75-4.765,0.809-6.865
		c0.984-1.325,2.073-2.632,3.346-3.663c1.472-1.19,4.606-0.708,5.724,0.919c1.581,2.302,2.903,4.784,4.308,7.207
		c1.334,2.302,2.67,4.605,3.933,6.946c2.182,4.047,5.073,7.893,5.112,12.714c0.056,7.145-2.888,13.06-8.781,17.064
		c-3.225,2.189-7.229,2.231-11.056,1.511c-0.889-0.167-1.653-1.06-2.442-1.66c-0.688-0.522-1.254-1.271-2.012-1.62
		c-1.068-0.492-2.227-0.861-2.252-2.226c-0.033-1.774-0.152-3.624,0.283-5.307c0.491-1.896,1.482-3.683,2.403-5.439
		c0.576-1.103,1.27-2.243,2.19-3.042c1.419-1.23,2.743-0.117,4.018,0.606C625.02,515.232,625.501,515.428,625.984,515.659z"/>
	<path fill-rule="evenodd" clip-rule="evenodd" fill="#FFFFFF" d="M587.486,492.844c0.355,1.196,0.868,2.371,1.029,3.592
		c0.232,1.772,0.371,3.589,0.254,5.367c-0.127,1.909,0.901,2.471,2.443,2.778c1.04,0.206,2.079,0.45,3.089,0.767
		c1.65,0.517,1.516,1.708,0.843,2.859c-4.07,6.968-10.47,10.763-17.974,12.966c-2.198,0.646-4.435,1.253-6.695,1.569
		c-4.972,0.693-12.24-2.685-14.216-6.426c-1.718-3.256-1.398-6.288,0.964-9.079c1.459-1.723,2.722-3.69,4.448-5.084
		c1.602-1.295,3.689-1.998,5.585-2.916c0.966-0.466,2.016-0.764,2.964-1.258c2.041-1.065,2.958-5.286,1.369-6.964
		c-0.559-0.59-1.895-0.926-2.683-0.703c-1.166,0.331-2.268,1.143-3.205,1.968c-2.693,2.368-5.668,3.007-8.992,1.694
		c-2.227-0.879-2.88-3.123-1.104-6.329c1.132-2.044,2.939-3.789,4.699-5.388c1.768-1.608,3.739-3.065,5.818-4.244
		c4.477-2.538,13.085-1.678,16.205,2.077c2.066,2.488,3.167,5.803,4.562,8.812c0.549,1.181,0.726,2.535,1.07,3.81
		C587.803,492.756,587.645,492.801,587.486,492.844z"/>
	<path fill-rule="evenodd" clip-rule="evenodd" fill="#FFFFFF" d="M534.723,507.104c-1.368-2.227-2.3-0.459-3.582,0.008
		c-0.843-2.387-2.112-4.446-1.568-7.31c0.654-3.439,0.711-7.01,0.814-10.53c0.156-5.255,0.082-10.515,0.202-15.771
		c0.04-1.761,0.347-3.519,0.581-5.271c0.324-2.444,1.734-4.002,4.364-3.859c1.758,0.096,3.793-0.502,5.376,1.558
		c1.562,2.031,1.687,4.038,1.647,6.346c-0.069,4.197,0.042,8.397,0.103,12.597c0.033,2.318,0.31,4.649,0.135,6.949
		c-0.258,3.382-0.445,6.853-1.402,10.064c-0.517,1.729-2.566,3.007-3.946,4.466c-0.216,0.229-0.553,0.343-0.443,0.278
		c0.969,2.266,2.267,4.305,2.671,6.507c0.444,2.43,0.099,5.01,0.041,7.523c-0.056,2.407-0.371,4.682,0.927,7.084
		c1.917,3.548-1.389,8.328-5.473,8.526c-0.991,0.048-1.998,0.258-2.952,0.546c-2.025,0.611-2.753-0.061-3.652-1.932
		c-1.954-4.066-0.344-8.18-0.635-12.245c-0.21-2.956,0.896-5.881-0.039-8.855c-0.354-1.123,2.685-4.994,3.921-5.45
		C532.735,507.991,533.631,507.568,534.723,507.104z"/>
	<path fill-rule="evenodd" clip-rule="evenodd" fill="#FFFFFF" d="M676.93,497.762c-0.012-0.049-0.168-0.684-0.313-1.32
		c-0.659-2.878,0.315-4.463,3.156-5.224c1.593-0.427,3.288-0.692,4.711-1.452c1.017-0.542,2.149-1.68,2.377-2.736
		c0.687-3.162,1.133-6.404,1.333-9.635c0.198-3.191-0.225-3.597-3.471-3.626c-1.419-0.014-1.891-0.479-2.116-1.714
		c-0.274-1.514-0.817-2.998-0.924-4.519c-0.048-0.687,0.503-1.779,1.091-2.076c1.523-0.769,3.248-1.131,4.838-1.786
		c1.266-0.523,2.393-1.459,3.688-1.812c1.413-0.384,3.081-0.729,4.403-0.326c1.715,0.524,3.359,1.619,4.743,2.806
		c1.721,1.478,0.544,3.486,0.421,5.281c-0.118,1.718-0.34,3.439-0.312,5.155c0.054,3.41,0.219,6.818,0.393,10.225
		c0.1,1.95,1.231,2.92,3.116,3.391c2.253,0.562,4.487,1.275,6.638,2.151c2.165,0.881,2.544,4.771,1.265,6.6
		c-1.701,2.435-4.259,2.23-6.549,2.696c-3.249,0.662-6.579,0.922-9.872,1.363c-0.724,0.097-1.441,0.227-2.16,0.354
		c-4.043,0.717-8.067,1.577-12.135,2.104C678.894,503.967,676.896,501.305,676.93,497.762z"/>
	<path fill-rule="evenodd" clip-rule="evenodd" fill="#FFFFFF" d="M652.907,480.645c-1.352-0.434-2.654-0.896-3.981-1.27
		c-3.336-0.937-3.534-3.18-2.073-5.984c1.479-2.84,4.67-2.906,6.933-4.471c1.639-1.134,3.478-1.999,5.283-2.868
		c3.907-1.881,7.213-0.19,7.279,4.183c0.065,4.3-0.651,8.618-1.104,12.919c-0.23,2.194-0.708,4.361-0.938,6.554
		c-0.292,2.786,1.388,4.38,3.557,5.746c0.873,0.55,1.94,1.486,2.069,2.37c0.211,1.456-0.458,2.795-2.123,3.463
		c-2.305,0.924-4.442,2.656-6.796,2.974c-4.356,0.589-8.825,1.321-13.229,0.07c-1.844-0.523-2.771-2.352-2.087-4.786
		c0.361-1.283,1.137-2.794,2.191-3.463c2.146-1.358,2.714-3.449,3.213-5.534C651.857,487.386,652.287,484.145,652.907,480.645z"/>
	<path fill-rule="evenodd" clip-rule="evenodd" fill="#FFFFFF" d="M580.268,595.869c-0.832,0.368-1.545-0.472-2.178-1.668
		c-0.616-1.162-1.535-2.188-1.998-3.397c-0.258-0.672-0.153-1.996,0.304-2.338c1.898-1.42,3.847-3.017,6.043-3.75
		c6.729-2.248,13.565-4.182,20.393-6.122c2.595-0.737,5.244-0.578,7.804,0.402c1.463,0.561,2.144,1.69,2.199,3.181
		c0.019,0.484-0.137,1.213-0.472,1.434c-3.315,2.179-6.534,4.447-10.455,5.636c-4.867,1.475-9.551,3.548-14.382,5.161
		C585.422,595.109,583.148,595.308,580.268,595.869z"/>
	<path fill-rule="evenodd" clip-rule="evenodd" fill="#FFFFFF" d="M166.11,553.367c2.537,0.182,4.79,0.441,6.508,2.435
		c1.218,1.414,1.524,3.084,0.955,4.747c-0.984,2.877-3.528,4.449-6.124,5.148c-3.764,1.016-7.666-3.854-6.428-7.578
		c0.042-0.126,0.093-0.252,0.151-0.371c0.544-1.113,0.857-2.479,1.707-3.259C163.651,553.781,165.01,553.716,166.11,553.367z"/>
	<path fill-rule="evenodd" clip-rule="evenodd" fill="#FFFFFF" d="M352.845,562.466c0.456-3.66,1.653-6.391,4.579-8.062
		c0.426-0.243,1.501-0.251,1.521-0.173c0.439,1.688,2.072,1.879,3.203,2.691c1.481,1.067,1.476,4.76,0.228,6.905
		c-1.355,2.329-3.487,3.262-5.954,3.42c-0.818,0.052-2.063-0.524-2.456-1.198C353.285,564.882,353.116,563.416,352.845,562.466z"/>
	<path fill-rule="evenodd" clip-rule="evenodd" fill="#FFFFFF" d="M227.011,569.366c-3.21-2.778-3.979-5.005-2.367-8.359
		c0.52-1.082,1.128-3.051,2.947-2.377c2.544,0.941,6.453,0.28,6.828,4.275C234.905,568.072,230.723,568.564,227.011,569.366z"/>
	<path fill-rule="evenodd" clip-rule="evenodd" fill="#FFFFFF" d="M275.247,575.863c-4.235-1.765-2.829-5.366-2.814-8.395
		c0.003-0.724,1.416-2.035,2.206-2.055c2.786-0.068,5.206,1.269,7.082,3.244c1.158,1.219-0.515,4.708-2.5,5.579
		C277.825,574.851,276.398,575.395,275.247,575.863z"/>
	<path fill-rule="evenodd" clip-rule="evenodd" fill="#FFFFFF" d="M241.557,568.821c0.815-0.573,1.64-1.422,2.642-1.804
		c2.292-0.872,6.695,0.827,7.691,2.698c0.612,1.149,0.348,2.035-0.492,2.869c-2.89,2.869-6.633,2.02-8.066-1.758
		C243.089,570.188,242.379,569.726,241.557,568.821z"/>
	<path fill-rule="evenodd" clip-rule="evenodd" fill="#FFFFFF" d="M262.126,562.019c1.438-1.071,2.783-1.163,4.208-0.239
		c0.438,0.284,0.946,0.521,1.454,0.624c2.118,0.43,3.667,2.389,3.256,4.198c-0.412,1.815-3.004,2.97-4.973,2.625
		c-2.485-0.437-3.55-1.628-3.371-4.157C262.767,564.112,262.349,563.12,262.126,562.019z"/>
	<path fill-rule="evenodd" clip-rule="evenodd" fill="#FFFFFF" d="M302.397,568.699c-2.339,0.079-4.514-2.054-5.068-4.389
		c-0.409-1.725-0.7-3.073,1.317-3.812c0.061-0.022,0.105-0.087,0.166-0.111c1.613-0.671,7.104,2.414,7.373,4.141
		C306.41,565.965,303.976,568.646,302.397,568.699z"/>
	<path fill-rule="evenodd" clip-rule="evenodd" fill="#FFFFFF" d="M322.918,567.247c1.758-1.543,2.104-1.455,3.579,0.548
		c0.405,0.551,1.35,0.714,2.058,1.028c2.179,0.971,3.127,3.096,1.689,4.321c-0.947,0.806-2.564,1.338-3.769,1.174
		c-1.081-0.147-2.558-0.739-2.513-2.678C323.995,570.241,323.32,568.825,322.918,567.247z"/>
	<path fill-rule="evenodd" clip-rule="evenodd" fill="#FFFFFF" d="M204.999,563.938c-0.124,0.14,0.049-0.22,0.325-0.337
		c1.618-0.69,6.379,1.689,7,3.29c0.574,1.483,0.008,2.744-1.019,3.339c-0.946,0.548-2.405,0.574-3.538,0.343
		c-1.435-0.293-1.735-1.535-1.727-2.991C206.046,566.537,205.469,565.49,204.999,563.938z"/>
	<path fill-rule="evenodd" clip-rule="evenodd" fill="#FFFFFF" d="M293.361,373.493c0.068-3.077-1.685-2.767-3.06-2.89
		c-2.392-0.212-3.955-1.486-3.627-3.287c0.237-1.303,0.754-2.593,1.361-3.778c0.752-1.468,1.671-2.861,2.616-4.219
		c3.847-5.53,8.686-9.662,15.723-10.14c4.424-0.3,9.781,2.778,10.81,7.968c0.189,0.952,0.76,1.823,1.095,2.752
		c0.269,0.747,0.596,1.519,0.637,2.292c0.152,2.862,0.151,5.732,0.292,8.595c0.19,3.839-3.146,6.231-6.665,4.746
		c-3.238-1.367-6.588-0.726-9.882-0.386c-2.692,0.279-5.354,0.659-7.897-0.562C294.088,374.262,293.552,373.646,293.361,373.493z
		 M297.829,365.551c2.694,0,5.031,0.098,7.352-0.055c0.764-0.051,1.716-0.577,2.18-1.189c1.023-1.349,0.59-4.223-0.719-5.196
		c-1.538-1.145-2.937-0.261-4.424,0.418C299.724,360.667,299.149,363.073,297.829,365.551z"/>
	<path fill-rule="evenodd" clip-rule="evenodd" fill="#FFFFFF" d="M129.212,375.432c0.366-0.897,1.131-2.143,1.367-3.48
		c0.507-2.882,2.099-5.18,3.622-7.525c1.354-2.085,5.704-3.305,8.073-2.47c3.448,1.215,6.156,3.618,8.482,6.162
		c1.44,1.575,1.702,4.273,2.353,6.508c0.541,1.856,0.898,3.766,1.302,5.66c0.565,2.653-2.625,6.775-5.342,6.728
		c-0.675-0.012-1.658-0.644-1.945-1.253c-0.894-1.893-2.245-1.66-3.402-0.708c-2.36,1.938-4.58,1.28-6.943,0.153
		c-1.122-0.535-2.455-0.679-3.496-1.318C131.762,382.954,129.236,377.653,129.212,375.432z"/>
	<path fill-rule="evenodd" clip-rule="evenodd" fill="#FFFFFF" d="M126.413,496.94c1.138-2.289,1.958-4.825,3.497-6.803
		c1.846-2.375,4.059-4.653,6.568-6.265c2.263-1.454,5.133-2.623,7.748-2.649c1.929-0.02,3.888,1.987,5.803,3.143
		c0.185,0.112,0.277,0.629,0.196,0.891c-0.811,2.635-1.56,5.112-4.07,6.995c-2.645,1.982-4.748,4.726-6.933,7.271
		c-1.517,1.767-5.297,2.819-7.519,1.849c-0.61-0.267-1.271-0.47-1.93-0.564c-2.126-0.309-2.747-1.766-2.858-3.65
		C126.748,497.084,126.581,497.013,126.413,496.94z"/>
	<path fill-rule="evenodd" clip-rule="evenodd" fill="#FFFFFF" d="M256.686,493.112c-2.283,6.058-7.149,9.831-12.14,13.508
		c-0.556,0.41-1.015,1.034-1.346,1.653c-1.701,3.176-4.854,5.086-8.177,4.075c-1.243-0.379-2.811-2.629-2.712-3.909
		c0.271-3.535,1.636-6.889,4.552-9.247c3.632-2.937,7.339-5.783,11.024-8.655c0.523-0.408,1.119-0.72,1.659-1.108
		c1.426-1.022,2.442-1.132,3.553,0.669C253.85,491.316,255.377,492.055,256.686,493.112z"/>
	<path fill-rule="evenodd" clip-rule="evenodd" fill="#FFFFFF" d="M215.786,507.581c-3.767-0.431-5.007-1.423-4.693-4.791
		c0.346-3.706,2.542-5.895,4.847-8.156c1.992-1.955,4.198-3.69,6.287-5.547c1.144-1.016,2.031-0.509,2.945,0.353
		c0.84,0.793,1.822,1.45,2.581,2.309c0.443,0.501,0.929,1.379,0.781,1.919c-0.569,2.067-1.111,4.106-2.963,5.651
		c-2.497,2.083-4.631,4.594-7.052,6.775C217.632,506.892,216.372,507.273,215.786,507.581z"/>
	<path fill-rule="evenodd" clip-rule="evenodd" fill="#FFFFFF" d="M104.07,477.829c-0.018,3.408-1.297,6.278-3.776,8.714
		c-0.922,0.906-1.57,2.13-2.204,3.286c-1.602,2.92-3.403,3.554-6.535,2.387c-1-0.372-2.149-0.332-3.223-0.526
		c-0.433-0.079-0.998-0.167-1.214-0.463c-0.164-0.225,0.069-0.807,0.226-1.189c0.76-1.857,3.077-3.177,1.946-5.708
		c-0.057-0.128,0.372-0.515,0.618-0.73c2.726-2.386,4.853-5.502,8.406-6.882c1.147-0.446,2.156-0.803,3.237,0.358
		C102.034,477.593,103.101,477.564,104.07,477.829z"/>
	<path fill-rule="evenodd" clip-rule="evenodd" fill="#FFFFFF" d="M114.847,481.949c0.664,2.312,2.359-0.077,3.528,0.751
		c0.106,0.763,0.318,1.529,0.3,2.29c-0.053,2.191-0.516,3.987-2.738,5.326c-2.842,1.712-5.325,4.023-8.177,6.243
		c-0.231-0.591-0.267-0.935-0.397-0.976c-4.254-1.342-1.186-4.324-1.419-6.54c-0.058-0.553,0.368-1.31,0.805-1.734
		c1.48-1.439,2.976-2.893,4.644-4.093C112.311,482.555,113.586,482.388,114.847,481.949z"/>
	<path fill-rule="evenodd" clip-rule="evenodd" fill="#FFFFFF" d="M271.033,496.354c1.604,1.372,2.94,2.515,4.678,4.002
		c-0.941,1.579-1.768,3.602-3.174,5.072c-0.771,0.808-2.565,1.384-3.837,0.427c-0.803-0.604-1.272-1.668-1.831-2.563
		c-0.104-0.167,0.184-0.544,0.117-0.772C265.805,498.493,268.818,497.436,271.033,496.354z"/>
</g>
</svg>
