<?xml version="1.0" encoding="utf-8"?>
<!-- Generator: Adobe Illustrator 16.0.1, SVG Export Plug-In . SVG Version: 6.00 Build 0)  -->
<!DOCTYPE svg PUBLIC "-//W3C//DTD SVG 1.1//EN" "http://www.w3.org/Graphics/SVG/1.1/DTD/svg11.dtd">
<svg version="1.1" id="Layer_1" xmlns="http://www.w3.org/2000/svg" xmlns:xlink="http://www.w3.org/1999/xlink" x="0px" y="0px"
	 width="792px" height="1008px" viewBox="0 0 792 1008" enable-background="new 0 0 792 1008" xml:space="preserve">
<path fill="#FFFFFF" d="M514.229,483.934c-2.026,2.659-1.506,6.127-2.133,9.292c-0.675,3.41-0.755,6.937-1.406,10.352
	c-0.891,4.657,0.058,9.189,0.366,13.785c0.124,1.84-0.307,3.812-0.921,5.572c-0.394,1.126-1.293,2.037-3.053,1.987
	c-2.358-0.066-4.729,0.673-7.11,0.889c-2.181,0.197-4.392,0.321-6.57,0.188c-3.518-0.215-7.027-0.598-10.523-1.04
	c-3.084-0.391-6.144-0.976-9.219-1.443c-1.356-0.206-2.722-0.364-4.089-0.494c-5.331-0.503-10.069-2.675-14.767-5.062
	c-5.6-2.846-11.219-5.666-16.937-8.261c-2.969-1.349-6.139-2.284-9.271-3.228c-4.231-1.273-7.114,0.932-9.659,3.977
	c-2.481,2.97-4.955,5.963-7.656,8.726c-1.09,1.116-2.773,2.302-4.191,2.309c-2.755,0.012-3.249,1.69-3.685,3.621
	c-0.316,1.405-0.213,2.856-1.562,3.954c-0.386,0.314-0.191,1.744,0.154,2.461c0.545,1.13,1.774,1.992,2.105,3.145
	c0.4,1.392,0.628,3.157,0.107,4.421c-1.108,2.694,0.424,4.985,0.537,7.462c0.06,1.314,0.458,2.656,0.286,3.929
	c-0.446,3.297-1.065,6.572-1.729,9.834c-0.609,3.009-2.714,4.712-5.332,6.095c-3.671,1.937-7.623,3.646-10.693,6.327
	c-3.316,2.892-7.312,3.546-11.062,5.01c-6.229,2.434-12.958,2.919-19.395,4.562c-3.55,0.906-7.052,2.022-10.53,3.177
	c-2.863,0.948-5.593,0.479-8.456-0.066c-2.17-0.414-4.506-0.259-6.729-0.012c-2.187,0.24-4.312,1.251-6.485,1.321
	c-2.991,0.102-6.003-0.33-9.002-0.596c-1.813-0.16-3.618-0.64-5.423-0.622c-4.688,0.046-9.371,0.38-14.056,0.409
	c-2.163,0.013-4.322-0.503-6.492-0.633c-5.189-0.312-10.296,0.503-15.328,1.595c-2.435,0.528-4.758,1.814-7.312,1.104
	c-3.474-0.968-6.975-0.483-10.468-0.459c-0.702,0.006-1.438,0.272-2.097,0.562c-2.928,1.288-5.703,1.805-9.043,0.832
	c-3.794-1.104-7.806-1.408-11.93-0.852c-4.423,0.598-8.88,0.641-13.146-1.929c-2.098-1.264-5.132-1.145-7.763-1.302
	c-2.75-0.165-5.529,0.209-8.289,0.126c-3.002-0.091-5.995-0.454-8.995-0.66c-1.126-0.077-2.265,0.021-3.388-0.08
	c-5.354-0.477-10.668-0.027-15.994,0.481c-1.316,0.126-2.9,0.103-3.991-0.51c-5.059-2.84-10.763-2.92-16.176-4.255
	c-3.81-0.938-7.667-0.53-11.411-1.241c-2.608-0.495-5.029-1.91-7.618-2.588c-3.067-0.805-5.964-2.077-9.398-1.745
	c-3.812,0.37-7.734-0.537-11.579-0.342c-4.659,0.239-8.88-2.401-13.712-1.432c-2.24,0.45-4.833-0.915-7.276-1.401
	c-2.854-0.567-5.739-0.991-8.576-1.63c-3.564-0.801-7.094-1.757-10.639-2.643c-4.268-1.067-8.597-1.937-12.786-3.253
	c-4.27-1.343-7.999-3.78-8.922-8.501c-0.516-2.641-0.138-5.504,0.139-8.238c0.339-3.353,1.738-6.593,0.811-10.083
	c-0.196-0.737,0.183-1.679,0.446-2.477c0.831-2.515,1.604-5.062,2.653-7.484c0.653-1.509,1.659-2.902,2.696-4.196
	c1.346-1.681,2.919-3.179,4.323-4.814c2.635-3.074,5.965-5.145,9.563-6.874c1.459-0.702,2.857-1.531,4.618-2.484
	c-4.043-2.281-7.818-2.479-11.783-1.668c-2.431,0.496-4.854,0.467-7.16-0.777c-1.132-0.611-2.361-1.173-3.611-1.405
	c-1.592-0.297-2.108-1.356-2.252-2.641c-0.387-3.449-0.785-6.907-0.896-10.373c-0.053-1.66,0.852-3.356,0.772-5.01
	c-0.198-4.064,1.905-7.456,2.835-11.179c0.724-2.9,1.015-5.907,1.561-8.854c0.832-4.497,2.663-8.598,4.903-12.564
	c1.708-3.025,2.728-6.552,4.874-9.188c2.812-3.454,5.153-7.729,10.163-8.812c1.041-0.227,1.977-0.941,2.96-1.431
	c-0.017-0.181-0.035-0.359-0.052-0.54c-2.733-0.931-5.5-1.775-8.191-2.813c-3.619-1.396-7.182-2.937-10.766-4.424
	c-1.784-0.741-2.275-2.431-2.082-3.968c0.245-1.949,0.047-3.602-0.494-5.526c-0.76-2.707-0.809-5.724-0.601-8.567
	c0.345-4.732,1.135-9.435,1.739-14.148c0.042-0.328,0.024-0.688,0.156-0.978c1.729-3.822,1.661-3.787-1.292-6.527
	c-2.745-2.547-5.26-5.292-6.178-9.133c-0.309-1.29-0.904-2.522-1.46-3.739c-1.653-3.618,0.098-6.84,1.54-9.835
	c1.811-3.761,4.812-6.606,8.998-7.871c0.303-0.092,0.627-0.234,0.926-0.203c3.673,0.384,5.752-2.342,8.268-4.212
	c0.244-0.182,0.427-0.491,0.694-0.592c4.046-1.539,8.001-3.473,12.179-4.471c5.882-1.406,11.922-2.174,17.914-3.083
	c1.57-0.238,3.226,0.137,4.822-0.003c1.327-0.117,2.645-0.289,3.171-2.062c1.197-4.027,4.022-7.073,7.015-9.778
	c1.585-1.435,3.957-2.012,5.994-2.933c3.675-1.662,6.768-0.263,10.165,1.351c3.198,1.519,6.916,1.95,10.418,2.806
	c0.414,0.101,0.918-0.101,1.365-0.217c2.601-0.68,3.906-0.057,4.343,2.594c0.29,1.761,1.098,1.716,2.46,1.583
	c3.703-0.363,7.415-0.685,11.131-0.834c4.82-0.194,9.648-0.233,14.474-0.275c0.915-0.008,1.84,0.451,2.749,0.414
	c2.33-0.095,4.651-0.377,6.979-0.528c3.574-0.233,7.15-0.458,10.729-0.614c4.596-0.202,9.225-0.717,13.785-0.373
	c3.667,0.277,7.334,0.977,10.989,2.018c6.813,1.94,13.636,1.894,19.635-3.163c2.307-1.944,5.209-3.511,8.522-2.3
	c1.151,0.42,2.256,1.172,3.162,2.01c1.955,1.805,4.262,1.898,6.597,1.458c3.839-0.727,7.613-1.618,11.599-1.099
	c1.582,0.206,3.258-0.458,4.895-0.486c2.477-0.044,4.959,0.073,7.435,0.208c3.637,0.199,7.276,0.413,10.904,0.734
	c3.778,0.334,7.544,0.812,11.316,1.211c7.409,0.787,14.209,3.544,20.943,6.494c2.041,0.894,3.982,2.014,6.009,2.945
	c1.551,0.713,2.917-0.057,4.223-0.804c2.309-1.321,4.523-2.822,6.903-3.993c3.004-1.478,6.07-0.804,8.861,0.643
	c1.468,0.761,2.464,2.466,3.946,3.154c1.728,0.802,3.737,1.229,5.651,1.336c3.714,0.209,7.446,0.1,11.171,0.077
	c0.721-0.004,1.592,0.003,2.136-0.37c3.573-2.448,7.36-2.948,11.593-2.073c5.689,1.178,11.444,2.06,17.192,2.932
	c4.924,0.747,9.143,3.366,13.757,4.918c3.984,1.34,8.024,2.523,11.967,3.974c2.495,0.918,4.962,2.024,7.232,3.393
	c1.111,0.669,1.817,2.081,2.577,3.241c1.171,1.793,2.555,3.5,1.774,5.967c-0.584,1.84-2.096,5.009-4.063,5.518
	c-3.443,0.893-5.684,3.351-7.786,6.037c-1.017,1.299-2.308,2.389-3.521,3.525c-0.671,0.626-1.435,1.15-2.225,1.774
	c0.871,1.447,1.852,2.65,2.343,4.027c0.403,1.131,0.178,2.475,0.321,3.713c0.214,1.816,0.606,3.616,0.74,5.436
	c0.108,1.502,0.365,3.185-0.154,4.508c-2.392,6.092-3.041,12.39-2.75,18.843c0.11,2.428-0.214,4.63-2.129,6.419
	c-1.485,1.39-2.179,3.122-1.615,5.237c0.302,1.127,0.407,2.305,0.662,3.816c-0.794,0.156-2.295,0.019-3.146,0.697
	c-3.469,2.768-7.433,2.273-11.421,2.369c-6.219,0.147-12.438,0.524-18.636,1.052c-2.846,0.242-5.619,1.218-8.462,1.604
	c-5.562,0.756-11.154,1.301-16.727,1.994c-3.168,0.396-6.352,0.771-9.474,1.412c-4.489,0.922-8.938,1.007-13.504,0.573
	c-2.931-0.278-5.944,0.473-8.921,0.466c-4.491-0.012-8.987-0.466-13.476-0.386c-3.918,0.07-7.827,0.642-11.743,0.943
	c-1.198,0.092-2.42-0.085-3.612,0.042c-5.676,0.603-11.341,1.312-17.019,1.898c-6.585,0.681-13.169,1.54-19.774,1.817
	c-5.228,0.22-10.486-0.368-15.733-0.501c-2.385-0.061-4.779,0.23-7.164,0.153c-5.201-0.169-10.462-0.047-15.577-0.838
	c-5.308-0.821-10.553-0.585-15.842-0.611c-2.323-0.012-4.636-0.645-6.967-0.797c-4.763-0.311-9.542-0.385-14.299-0.76
	c-2.787-0.22-5.53-0.993-8.317-1.221c-2.729-0.223-5.487-0.071-8.233-0.085c-0.453-0.002-0.91,0.019-1.359-0.025
	c-7.025-0.696-14.042-1.494-21.077-2.062c-2.746-0.224-5.793-0.612-8.224,0.321c-2.173,0.836-4.257,0.592-6.331,0.92
	c-2.215,0.35-4.573-0.182-6.867-0.354c-3.973-0.299-7.955-0.53-11.915-0.962c-2.573-0.28-5.113-1.229-7.666-1.221
	c-3.097,0.008-5.757-1.521-8.721-1.799c-0.129-0.012-0.288-0.015-0.381-0.088c-3.427-2.672-6.36-0.518-9.354,0.959
	c-2.562,1.264-5.149,2.483-7.648,3.862c-1.381,0.762-2.685,1.719-3.875,2.758c-1.029,0.9-1.035,3.502,0.134,4.421
	c1.259,0.988,2.798,1.704,4.316,2.26c2.245,0.819,4.553,1.514,6.883,2.046c3.883,0.886,7.682,1.745,11.851,1.319
	c2.535-0.259,5.559,0.396,8.042,2.281c1.423,1.081,3.555,1.368,5.423,1.694c3.156,0.552,6.528,0.354,9.495,1.38
	c4.162,1.438,8.23,0.584,12.344,0.671c0.979,0.021,1.959,0.27,2.925,0.479c2.728,0.591,5.552,0.936,8.144,1.898
	c3.03,1.126,5.832,0.102,8.668-0.312c3.575-0.521,7.078-1.234,10.663-0.155c3.536,1.062,6.949-0.326,10.343-0.851
	c4.485-0.691,8.64,0.198,12.876,1.271c1.793,0.454,3.688,0.922,5.501,0.811c7.667-0.474,15.123,1.132,22.655,1.996
	c1.719,0.198,3.484,0.218,5.209,0.086c3.616-0.276,7.097,0.335,10.427,1.598c5.715,2.165,11.575,3.302,17.687,3.154
	c5.754-0.138,11.438,0.561,17.154,1.155c5.158,0.537,10.414,0.127,15.626,0.159c1.813,0.012,3.638,0.246,5.438,0.112
	c3.391-0.254,6.766-0.727,10.152-1.054c1.049-0.102,2.115-0.039,3.173-0.036c3.599,0.01,7.208,0.221,10.792-0.006
	c5.729-0.36,11.453-0.901,17.156-1.567c4.902-0.572,9.762-1.497,14.657-2.129c3.962-0.513,7.952-0.802,11.926-1.229
	c1.318-0.142,2.646-0.315,3.93-0.636c4.129-1.033,8.22-2.23,12.364-3.182c2.008-0.459,4.143-0.361,6.155-0.801
	c1.165-0.254,2.254-1.004,3.273-1.685c0.31-0.207,0.496-1.003,0.362-1.405c-2.498-7.564,1.593-16.366,9.54-18.395
	c1.685-0.432,3.398-0.948,5.114-1.01c5.843-0.206,11.601-1.927,17.563-0.428c2.759,0.693,5.7,0.264,8.636-0.668
	c4.172-1.325,8.542-1.934,13.041-1.533c2.592,0.231,5.285-0.17,7.873-0.623c1.655-0.289,2.573,0.312,3.653,1.36
	c3.115,3.025,3.699,6.98,1.604,9.896c-1.271,1.768-2.895,3.275-4.211,5.013c-1.645,2.167-3.399,4.321-4.566,6.743
	c-0.482,1.003,0.004,3.033,0.789,3.99c3.438,4.197,8.389,5.864,13.428,7.117c4.154,1.032,8.354,2.09,12.594,2.49
	c3.395,0.319,6.883-0.284,10.32-0.571c2.271-0.188,4.57-0.354,6.773-0.879c2.45-0.581,4.825-1.509,7.201-2.374
	c1.951-0.711,3.593-2.868,6.014-1.193c2.132-1.111,3.896,0.057,5.295,1.287c1.907,1.681,3.585,3.677,5.085,5.737
	c0.585,0.805,0.413,2.156,0.598,3.257C513.896,482.193,514.039,482.912,514.229,483.934z M417.636,387.142
	c-0.862-0.126-1.556-0.3-2.251-0.318c-5.209-0.137-10.418-0.296-15.628-0.314c-1.04-0.004-2.515,0.23-3.047,0.923
	c-1.907,2.486-3.409,5.279-5.24,7.83c-0.945,1.318-2.077,3.042-3.446,3.422c-4.616,1.284-9.341,2.389-14.094,2.901
	c-3.675,0.397-7.598,0.375-11.153-0.499c-4.37-1.073-8.535-3.093-12.677-4.955c-3.467-1.559-7.674-0.929-9.336,1.928
	c-1.688,2.906-4.505,4.25-7.396,5.162c-6.069,1.914-12.274,3.515-18.705,3.34c-4.388-0.119-8.873-0.231-13.118-1.204
	c-5.097-1.167-9.972-3.285-14.97-4.905c-1.784-0.579-3.573-1.492-5.483,0.042c-1.315,1.054-2.917,1.752-4.401,2.592
	c-0.927,0.523-1.914,0.95-2.803,1.529c-5.003,3.255-10.371,5.031-16.413,4.188c-1.391-0.193-2.81-0.669-4.166-0.528
	c-4.801,0.496-8.554-2.511-12.83-3.719c-2.961-0.837-5.629-2.708-8.433-4.105c-1.426-0.711-2.547-0.583-3.666,0.796
	c-2.25,2.774-4.915,5.154-8.296,6.463c-5.685,2.202-11.528,3.946-17.671,4.01c-2.422,0.025-4.93-0.479-7.256-1.202
	c-2.362-0.731-4.54-2.051-6.815-3.076c-2.118-0.954-4.235-1.916-6.396-2.769c-1.441-0.566-3.248-1.711-4.384-1.275
	c-3.951,1.516-7.638,3.699-11.508,5.447c-2.753,1.243-5.565,2.704-8.487,3.125c-2.765,0.399-5.731-0.279-8.563-0.759
	c-2.767-0.467-5.557-1.053-8.187-2.003c-3.12-1.126-6.104-2.645-9.095-4.099c-1.535-0.746-3.027-1.43-4.768-0.94
	c-2.502,0.703-4.512,2.306-6.681,3.633c-1.196,0.731-2.499,1.535-3.838,1.732c-3.131,0.46-6.315,0.558-9.475,0.832
	c-3.555,0.309-6.745-0.63-9.543-2.813c-0.891-0.694-1.562-1.681-2.47-2.346c-3.297-2.415-6.085-5.281-8.283-8.736
	c-0.869-1.365-2.011-1.874-3.769-1.451c-1.65,0.398-3.454,0.442-5.155,0.277c-3.168-0.309-5.218,0.627-5.546,2.89
	c-0.57,3.93-1.181,7.854-1.627,11.8c-0.104,0.925,0.123,2.092,0.637,2.848c2.563,3.77,6.56,5.145,10.791,5.517
	c2.106,0.187,3.298,0.938,4.178,2.652c0.19,0.37,0.434,0.856,0.769,0.984c1.617,0.612,3.284,1.092,4.915,1.672
	c3.636,1.292,7.245,2.664,10.897,3.906c1.674,0.569,3.417,1.246,5.144,1.286c3.196,0.077,6.318-0.559,9.618,0.062
	c5.251,0.988,10.63,1.347,15.97,1.796c4.712,0.397,9.447,0.504,14.165,0.846c1.272,0.094,2.501,0.709,3.775,0.846
	c2.407,0.254,4.837,0.282,7.25,0.496c4.931,0.433,9.854,0.959,14.786,1.367c1.118,0.094,2.283-0.313,3.392-0.189
	c4.449,0.496,8.883,1.121,13.326,1.67c0.702,0.086,1.423,0.059,2.133,0.028c3.25-0.14,6.582-0.817,9.731-0.325
	c4.477,0.699,8.902,0.821,13.391,0.732c2.231-0.043,4.477,0.237,6.704,0.486c1.996,0.224,3.965,0.786,5.961,0.88
	c4.188,0.197,8.386,0.157,12.58,0.268c6.67,0.176,13.338,0.458,20.009,0.571c3.536,0.062,7.101,0.087,10.609-0.283
	c3.727-0.396,7.383-1.429,11.105-1.915c5.314-0.696,10.658-1.175,15.994-1.696c4.837-0.474,9.673-1.113,14.522-1.253
	c5.382-0.156,10.778,0.232,16.168,0.262c2.811,0.016,5.629-0.431,8.43-0.318c4.273,0.173,8.516,0.042,12.751-0.476
	c4.002-0.489,8-0.988,12-1.487c3.889-0.483,7.792-0.868,11.657-1.493c3.599-0.583,7.136-1.532,10.733-2.114
	c2.873-0.464,5.79-0.752,8.697-0.869c3.009-0.121,6.13,0.245,8.624-1.852c2.173-1.826,4.585-2.562,7.358-2.594
	c2.451-0.026,4.021-1.833,4.115-4.255c0.104-2.653-0.154-5.47,0.652-7.915C416.557,402.692,415.424,394.799,417.636,387.142z
	 M125.43,560.633c0.832,0.24,1.276,0.491,1.712,0.479c4.067-0.133,7.929,0.867,11.742,2.104c1.447,0.47,2.798,1.335,4.269,1.607
	c2.207,0.409,4.5,0.335,6.723,0.678c5.146,0.795,10.251,1.873,15.413,2.524c2.838,0.356,5.934,0.689,8.587-0.084
	c2.582-0.755,4.267-0.223,6.246,1.095c1.433,0.954,3.04,2.035,4.671,2.235c5.98,0.737,11.996,1.398,18.013,1.573
	c5.256,0.152,10.5,1.057,15.805,0.255c1.954-0.296,4.026-0.075,5.98,0.987c1.85,1.007,3.93,1.796,6,2.146
	c3.016,0.509,6.108,0.658,9.175,0.742c6.408,0.177,12.821,0.187,19.23,0.312c2.197,0.044,4.398,0.41,6.586,0.324
	c4.766-0.188,9.524-0.568,14.285-0.878c3.04-0.199,6.079-0.582,9.117-0.577c3.745,0.005,7.486,0.381,11.232,0.498
	c4.527,0.141,9.059,0.15,13.586,0.271c2.537,0.068,5.087,0.485,7.604,0.318c3.462-0.23,6.919-0.742,10.339-1.354
	c5.274-0.942,10.734,0.925,15.995-1.658c2.606-1.277,5.966-0.986,8.965-1.517c3.372-0.594,6.527-1.963,9.92-2.646
	c4.051-0.817,8.007-2.557,11.725-4.445c3.742-1.901,7.291-4.281,10.65-6.813c3.53-2.663,5.678-5.938,4.465-10.941
	c-0.789-3.251-0.702-6.798,0.423-10.186c0.715-2.151,1.064-4.427,1.565-6.648c0.042-0.188,0.023-0.408-0.031-0.596
	c-0.607-2.059-4.085-4.599-6.226-4.896c-3.131-0.438-5.748-1.734-7.058-4.938c-0.253-0.618-1.123-1.452-1.646-1.411
	c-2.252,0.177-4.589,0.336-6.695,1.071c-3.644,1.273-7.339,1.896-11.157,2.248c-2.831,0.261-5.611,1.03-8.422,1.543
	c-0.999,0.183-2.013,0.344-3.025,0.391c-1.933,0.091-4.069-0.425-5.762,0.237c-3.829,1.498-8.338,0.281-11.778,3.113
	c-0.255,0.209-0.781,0.117-1.182,0.116c-2.991-0.012-5.984-0.13-8.972-0.024c-2.041,0.073-4.066,0.545-6.109,0.657
	c-1.041,0.057-2.101-0.388-3.158-0.428c-2.912-0.109-5.827-0.129-8.742-0.177c-2.92-0.049-5.841-0.049-8.76-0.144
	c-3.194-0.104-6.386-0.279-9.578-0.449c-1.599-0.085-3.193-0.31-4.792-0.334c-6.121-0.095-12.291,0.316-18.349-0.335
	c-4.684-0.504-9.217-0.206-13.791,0.314c-4.812,0.548-9.577,1.663-14.395,1.931c-6.026,0.335-12.099-0.184-18.127,0.124
	c-4.693,0.241-9.248-0.953-14.006-0.487c-4.294,0.42-8.737-0.611-13.109-1.061c-3.929-0.401-7.873-1.371-11.769-1.19
	c-4.177,0.193-7.213-2.637-11.077-3.094c-2.872-0.34-5.646-1.453-8.512-1.916c-4.397-0.71-8.837-1.149-13.257-1.72
	c-1.256-0.161-2.506-0.368-3.759-0.559c-3.666-0.56-7.39-0.871-10.979-1.745c-3.719-0.905-7.22-2.487-11.257-1.667
	c-2.136,0.435-4.448,0.26-6.649,0.041c-2.325-0.231-4.598-0.938-6.917-1.264c-2.819-0.396-5.696-1.015-8.489-0.792
	c-2.539,0.202-5.061,1.243-7.479,2.198c-3.723,1.472-6.792,3.868-9.19,7.372c3.041,0.783,5.924,2.12,8.794,2.092
	c2.71-0.025,4.809,1.361,7.286,1.746c3.399,0.529,6.673,1.81,10.048,2.552c2.891,0.637,5.857,0.923,8.775,1.448
	c3.015,0.544,6.007,1.677,9.016,1.699c7.779,0.058,14.886,2.527,22.013,5.164c1.274,0.472,2.745,0.613,4.117,0.578
	c3.724-0.094,7.447-0.555,11.165-0.502c2.992,0.043,6.14,0.142,8.92,1.089c3.269,1.116,6.501,1.401,9.845,1.453
	c2.599,0.039,5.203-0.003,7.796,0.145c7.407,0.42,14.816,0.839,22.213,1.408c6.312,0.484,12.607,1.18,18.91,1.773
	c3.097,0.291,6.197,0.544,9.292,0.852c2.931,0.29,5.993,0.19,8.755,1.043c5.049,1.56,10.055,1.622,15.226,1.163
	c4.599-0.408,9.237-0.429,13.859-0.496c4.812-0.07,9.629,0.082,14.44-0.001c4.278-0.073,8.563-0.607,12.825-0.438
	c4.193,0.168,8.207-0.285,12.239-1.35c2.036-0.537,4.198-0.694,6.313-0.805c2.979-0.155,6.045,0.307,8.937-0.235
	c4.814-0.901,9.312-3.089,14.422-3.029c3.208,0.035,6.425-0.923,9.64-1.42c3.663-0.566,7.339-1.057,10.989-1.691
	c4.604-0.803,9.19-1.709,13.778-2.604c0.512-0.1,1.12-0.281,1.45-0.642c2.001-2.18,4.068-2.166,6.696-0.944
	c2.281,1.062,3.62,2.795,2.976,5.271c-0.95,3.648-4.053,6.347-7.781,6.978c-4.065,0.688-8.108,1.504-12.159,2.276
	c-4.512,0.86-9.013,1.772-13.534,2.571c-1.256,0.221-2.288,0.357-2.79,1.828c-0.167,0.488-1.6,1.104-1.979,0.877
	c-4.062-2.457-8.323-1.347-12.516-0.817c-2.64,0.332-5.35,1.802-7.823,1.423c-6.062-0.928-11.327,1.438-16.813,3.012
	c-0.629,0.182-1.093,0.936-1.808,1.582c0.667,0.365,0.974,0.486,1.224,0.681c1.192,0.922,2.589,1.691,3.481,2.851
	c0.72,0.935,0.988,2.323,1.143,3.551c0.102,0.803-0.094,2.112-0.622,2.438c-1.637,1.006-3.504,1.51-5.5,0.918
	c-2.305-0.683-4.191-3.008-3.808-5.026c0.376-1.977,0.978-3.911,1.569-6.212c-0.858-0.16-1.871-0.542-2.866-0.5
	c-3.449,0.146-6.891,0.44-10.334,0.68c-0.269,0.019-0.537,0.046-0.805,0.072c-2.878,0.294-5.751,0.718-8.637,0.843
	c-2.572,0.112-5.159-0.164-7.739-0.161c-3.313,0.003-6.625,0.126-9.938,0.176c-1.798,0.026-3.599-0.046-5.395,0.024
	c-2.924,0.117-5.863,0.598-8.763,0.41c-3.648-0.233-7.265-0.97-10.891-1.517c-1.86-0.281-3.71-0.632-5.568-0.927
	c-0.254-0.04-0.531,0.096-0.795,0.087c-3.207-0.118-6.443-0.012-9.611-0.428c-5.865-0.77-11.591-2.815-17.643-1.729
	c-0.449,0.081-0.937-0.053-1.406-0.087c-3.546-0.257-7.089-0.562-10.639-0.757c-3.361-0.186-6.73-0.219-10.092-0.391
	c-3.137-0.159-6.27-0.397-9.403-0.628c-5.731-0.421-11.477-0.716-17.182-1.368c-2.06-0.235-3.995-0.414-6.101-0.247
	c-3.641,0.289-7.342-0.243-11.009-0.142c-1.05,0.028-2.834,0.907-2.98,1.652c-0.825,4.206-0.933,4.485-4.758,4.821
	c-1.605-1.672-2.287-3.783-1.801-5.916c0.347-1.525,0.014-2.1-1.283-2.522c-0.893-0.291-1.741-0.771-2.651-0.949
	c-3.27-0.64-6.541-1.403-9.848-1.678c-1.667-0.138-3.412,0.677-5.123,1.06c0.042,0.205,0.083,0.408,0.125,0.611
	c1.998,1.034,4.008,2.041,5.979,3.122c0.371,0.204,0.778,0.674,0.834,1.069C126.348,554.895,127.685,557.729,125.43,560.633z
	 M333.378,350.354c-1.253-0.098-2.114-0.097-2.949-0.243c-2.83-0.496-5.686-0.902-8.463-1.613c-2.803-0.719-5.489-1.896-8.293-2.607
	c-1.517-0.385-3.181-0.338-4.768-0.263c-1.787,0.084-3.562,0.598-5.342,0.605c-3.119,0.012-6.26-0.508-9.354-0.285
	c-5.36,0.388-10.725,0.973-16.02,1.875c-2.687,0.458-5.155,0.228-7.691-0.426c-2.609-0.673-4.905-2.528-7.908-1.758
	c-1.815,0.465-2.447,1.205-1.788,2.989c0.961,2.603,0.234,5.743-2.259,6.611c-3.355,1.168-6.031,3.776-9.93,3.935
	c-2.417,0.1-4.688-0.205-6.772-0.953c-1.667-0.598-3.458-1.722-4.031-3.892c-0.342-1.295-0.966-2.542-1.627-3.718
	c-0.481-0.857-1.636-1.496-1.776-2.35c-0.316-1.913-1.53-1.682-2.792-1.615c-3.044,0.16-6.086,0.386-9.132,0.483
	c-3.837,0.122-7.679,0.1-11.515,0.237c-0.852,0.031-1.69,0.468-2.447,0.692c0.021,0.419-0.002,0.507,0.032,0.544
	c2.412,2.681,4.318,5.689,5.798,8.972c0.122,0.271,0.255,0.582,0.236,0.864c-0.325,4.706-2.036,9.033-3.807,13.322
	c-0.315,0.764-1.149,1.443-1.909,1.862c-0.966,0.532-2.08,0.854-3.168,1.1c-3.613,0.814-7.211,1.859-10.875,2.239
	c-4.014,0.416-7.97-0.456-11.775-1.924c-1.301-0.503-2.135-1.169-2.465-2.583c-0.468-2.009-1.122-3.974-1.66-5.968
	c-0.095-0.354-0.077-0.771,0.005-1.131c0.629-2.769,1.306-5.526,1.925-8.297c0.193-0.866,0.073-1.84,0.415-2.626
	c0.949-2.184,2.096-4.282,3.092-6.446c0.222-0.482,0.147-1.101,0.219-1.753c-0.663,0-1.058-0.018-1.452,0.002
	c-2.668,0.137-5.335,0.357-8.005,0.407c-4.132,0.079-8.272-0.084-12.398,0.095c-3.479,0.15-6.865,1.655-10.43,0.788
	c-1.875-0.456-2.609,0.639-3.807,1.933c-1.332,1.442-2.372,4.074-5.293,3.479c-0.383-0.078-1.129,0.539-1.361,1.006
	c-0.703,1.412-1.234,2.91-1.744,4.156c-1.631,0.517-3.092,1.279-4.599,1.387c-2.134,0.152-4.301-0.23-6.456-0.292
	c-4.566-0.13-9.157,0.036-13.6-1.339c-2.118-0.656-4.339-1.349-4.877-3.816c-0.577-2.643-1.396-3.193-3.898-2.322
	c-2.613,0.908-5.264,1.744-7.952,2.391c-2.939,0.707-5.967,1.043-8.903,1.762c-2.464,0.602-4.853,1.512-7.27,2.303
	c-1.426,0.467-2.921,0.812-4.242,1.492c-2.515,1.296-4.927,2.792-7.392,4.21c0.801,1.598,0.544,3.241-0.636,4.797
	c-1.916,2.525-1.09,5.26-0.029,7.643c0.983,2.207,3.574,2.736,5.724,2.51c5.94-0.625,11.845-1.59,17.753-2.489
	c1.986-0.303,3.535,0.253,4.208,2.111c0.841,2.321,1.391,4.745,2.138,7.102c0.624,1.966,1.112,4.029,2.084,5.819
	c1.774,3.265,4.764,4.329,8.47,3.964c3.651-0.358,6.076-2.487,7.992-5.176c1.77-2.486,3.969-3.728,6.907-3.997
	c1.277-0.117,6.621,2.049,7.651,3.176c2.894,3.167,6.435,5.43,10.54,6.502c3.271,0.855,6.683,1.363,10.061,1.585
	c4.92,0.323,9.438-0.923,10.649-7.132c0.34-1.743,1.559-3.489,2.809-4.828c1.028-1.099,2.706-2.246,4.087-2.236
	c4.074,0.029,7.759,1.602,10.467,4.742c1.946,2.257,4.207,3.872,6.969,4.87c0.757,0.274,1.483,0.643,2.247,0.895
	c4.594,1.511,8.9,3.768,14.01,3.771c5.837,0.003,10.056-3.237,10.546-9.177c0.544-6.592,5.71-7.968,10.925-7.325
	c4.673,0.576,8.383,3.443,12.091,6.065c3.23,2.286,6.272,4.826,10.215,5.848c3.673,0.953,7.268,2.825,11.186,1.207
	c3.516-1.451,7.689-2.311,8.157-7.157c0.384-3.987,2.759-6.481,6.212-7.557c2.366-0.736,5.248-1.625,7.549,0.673
	c3.208,3.204,6.842,5.685,11.207,7.096c2.35,0.759,4.594,1.84,6.909,2.716c1.441,0.546,2.903,1.308,4.393,1.405
	c4.796,0.311,9.609,0.508,14.414,0.463c4.821-0.044,8.705-1.813,8.812-8.741c0.013-0.834,0.512-1.877,1.132-2.44
	c1.413-1.281,2.906-2.621,4.612-3.397c2.998-1.364,5.987-0.619,8.833,0.857c1.355,0.704,2.726,1.458,4.179,1.882
	c2.547,0.745,5.227,1.065,7.734,1.909c2.953,0.993,5.794,2.327,8.662,3.562c3.625,1.561,7.417,1.84,11.235,1.254
	c3.836-0.589,6.971-4.453,6.214-7.858c-0.603-2.714-0.572-4.959,1.149-7.332c1.994-2.748,5.689-4.711,8.978-3.779
	c2.476,0.701,5.356,0.383,7.312,2.609c0.197,0.225,0.598,0.33,0.92,0.378c4.166,0.627,8.316,1.447,12.508,1.787
	c4.348,0.352,6.921-1.85,7.817-6.049c0.481-2.262,0.04-2.947-2.157-3.739c-2.078-0.75-4.112-1.621-6.172-2.425
	c-1.711-0.667-3.315-1.163-5.164-0.01c-0.954,0.595-2.466,0.743-3.607,0.512c-4.84-0.981-9.622-2.243-14.454-3.264
	c-1.492-0.315-3.081-0.156-4.621-0.277c-4.899-0.385-9.792-0.906-14.698-1.167c-3.496-0.186-4.735,0.933-5.111,4.469
	c-0.233,2.198-1.526,3.726-3.119,4.686c-2.593,1.564-5.479,2.648-8.265,3.881c-0.453,0.2-1.034,0.185-1.549,0.157
	c-2.322-0.128-4.643-0.296-6.964-0.454c-3.629-0.247-7.106-1.235-8.782-4.664c-1.744-3.569-3.188-7.421-1.602-11.565
	C332.875,351.935,333.059,351.31,333.378,350.354z M202.878,479.255c-2.726-0.151-5.082-0.216-7.423-0.43
	c-2.396-0.219-4.984-0.092-7.123-0.989c-4.415-1.851-8.631-1.042-12.917,0.003c-0.722,0.177-1.868,0.873-1.858,1.308
	c0.019,0.781,0.595,1.746,1.234,2.283c2.449,2.061,2.883,4.09,1.167,6.749c-2.173,3.365-4.884,6.095-8.45,8.103
	c-2.187,1.229-4.01,1.575-6.287,0.427c-2.565-1.293-4.4-5.471-2.866-7.355c1.377-1.69,2.85-3.357,4.524-4.74
	c2.702-2.231,5.603-4.222,8.472-6.352c-4.009-0.742-8.189-1.242-12.452-0.165c-1.48,0.375-3.009,0.687-4.527,0.753
	c-2.215,0.1-4.456,0.094-6.657-0.137c-1.613-0.168-3.212-0.677-4.76-1.201c-1.553-0.525-2.982-1.567-4.56-1.844
	c-4.212-0.74-8.479-1.159-12.715-1.773c-1.678-0.242-3.338-0.979-4.993-0.938c-3.814,0.098-7.483,1.344-11.42,1.125
	c-3.515-0.195-6.651-0.574-9.282-3.136c-0.599-0.583-1.644-0.851-2.523-0.971c-1.836-0.251-3.724-0.163-5.546-0.472
	c-5.465-0.927-10.897-2.063-16.372-2.924c-1.427-0.224-2.821,0.56-3.062,2.258c-0.355,2.498-0.615,5.012-0.817,7.527
	c-0.047,0.582,0.304,1.195,0.472,1.796c0.527-0.232,1.133-0.365,1.567-0.712c2.271-1.821,4.419-3.804,6.761-5.525
	c2.746-2.019,5.993-0.855,7.294,2.31c0.964,2.346,0.076,4.705-0.701,6.545c-1.834,4.345-5.705,6.955-9.833,9.124
	c-1.618,0.851-3.851,1.001-4.533,3.646c1.324,0.231,2.639,0.313,3.85,0.709c1.74,0.57,3.351,1.591,5.113,2.019
	c2.627,0.636,5.349,0.866,8.009,1.383c1.116,0.216,2.203,1.089,3.257,1.015c2.459-0.173,4.441,0.952,6.629,1.66
	c2.244,0.728,4.723,0.703,7.077,1.126c4.913,0.882,9.775,1.855,14.822,2.062c4.296,0.176,8.581-0.673,12.994,1.148
	c4.026,1.662,8.752,1.612,13.161,2.372c1.622,0.278,3.205,0.944,4.826,1.029c3.747,0.196,7.553-0.205,11.247,0.296
	c3.659,0.495,7.245,1.684,10.794,2.788c2.252,0.7,4.303,2.212,6.579,2.637c4.191,0.783,8.474,1.15,12.734,1.47
	c3.141,0.236,6.312,0.036,9.462,0.191c2.53,0.124,5.044,0.589,7.575,0.724c2.996,0.16,6.001,0.103,9.001,0.186
	c4.718,0.132,9.436,0.354,14.155,0.428c1.659,0.026,3.324-0.385,4.985-0.383c4.272,0.006,8.545,0.163,12.818,0.196
	c2.863,0.022,5.728-0.119,8.591-0.087c7.278,0.084,14.555,0.205,21.833,0.351c4.97,0.098,9.938,0.306,14.908,0.381
	c4.676,0.071,9.357,0.139,14.03,0.001c2.926-0.086,5.834-0.611,8.76-0.837c3.579-0.276,7.186-0.282,10.743-0.712
	c3.112-0.376,6.155-1.312,9.266-1.749c2.473-0.35,5.03-0.128,7.494-0.513c3.021-0.473,5.967-1.438,8.983-1.957
	c3.207-0.551,6.525-0.546,9.678-1.285c4.597-1.081,9.125-2.491,13.607-3.985c3.407-1.135,6.739-2.527,10.017-4.001
	c1.069-0.482,2.396-1.438,2.67-2.433c0.529-1.938,0.677-4.081,0.483-6.093c-0.476-4.964-1.359-9.888-1.835-14.852
	c-0.381-3.979-0.421-4.234-4.315-4.148c-3.322,0.074-6.401,0.687-9.255,2.782c-1.739,1.276-4.15,1.689-6.31,2.323
	c-1.204,0.353-2.68,0.038-3.735,0.593c-3.076,1.616-6.338,1.777-9.686,2.02c-3.855,0.278-7.678,1.018-11.519,1.528
	c-6.362,0.849-12.728,1.669-19.09,2.513c-1.063,0.14-2.119,0.475-3.181,0.478c-9.099,0.024-18.197,0.011-27.296-0.031
	c-3.687-0.018-7.373-0.162-11.06-0.192c-1.102-0.01-2.215,0.307-3.306,0.232c-2.446-0.166-4.876-0.575-7.323-0.719
	c-4.377-0.257-8.762-0.371-13.142-0.596c-1-0.052-2.01-0.529-2.98-0.438c-3.901,0.371-7.73,0.506-11.276-1.593
	c-0.33-0.196-0.773-0.243-1.171-0.274c-3.271-0.251-6.336-1.459-9.813-1.092c-4.029,0.423-8.163,0.229-12.29-0.563
	c-5.458-1.049-11.076-1.238-16.593-2.024c-1.444-0.206-2.615,0.032-3.009,1.157c-0.219,0.624,0.612,1.979,1.334,2.497
	c1.608,1.15,1.957,2.546,0.814,3.912c-1.997,2.386-4.148,4.675-6.461,6.754c-2.661,2.392-5.71,4.285-7.133,7.889
	c-1.279,3.24-3.858,4.261-7.337,3.389c-1.351-0.338-2.646-1.045-4.004-1.168c-1.745-0.157-2.071-1.218-1.816-2.462
	c0.743-3.625,1.92-7.304,4.598-9.808c4.358-4.075,8.666-8.352,14.268-10.842C200.151,480.401,201.395,479.888,202.878,479.255z
	 M91.357,555.581c1.696-0.116,2.497-1.35,2.054-3.258c-0.235-1.011-0.713-2.11-0.513-3.05c0.429-2.013,0.935-4.113,1.948-5.866
	c1.173-2.024,0.113-2.53-1.384-2.903c-2.963-0.738-5.941-1.439-8.943-1.998c-3.401-0.632-6.823-1.203-10.26-1.571
	c-1.513-0.16-2.736,0.386-3.472,2.205c-1.152,2.85,0.644,5.347,0.424,8.032c-0.035,0.425,0.472,0.936,0.805,1.341
	c2.231,2.72,5.566,3.688,8.612,4.787C84.034,554.531,87.767,554.859,91.357,555.581z M195.812,353.115
	c-0.091-0.171-0.183-0.341-0.274-0.512c-1.282,0.674-2.895,1.06-3.782,2.079c-2.576,2.958-2.437,8.103,2.471,9.309
	c0.966,0.237,1.875,0.708,2.817,1.049c3.479,1.26,5.264,0.166,6.222-3.406C204.155,358.321,200.323,353.401,195.812,353.115z
	 M126.687,338.601c-3.16,0.557-5.277,3.24-4.831,6.384c0.19,1.339-0.03,3.183,1.975,3.146c2.243-0.042,4.508-0.376,6.707-0.848
	c2.579-0.554,5.124-1.31,7.625-2.153c0.836-0.283,1.49-1.106,2.228-1.683c-0.667-0.463-1.273-1.104-2.013-1.361
	c-2.743-0.955-5.523-1.807-8.304-2.652C128.963,339.096,127.817,338.875,126.687,338.601z M341.103,356.794
	c3.048,0,6.061-0.004,9.074,0.001c1.205,0.002,2.322-0.347,2.172-1.732c-0.11-1.021-0.59-2.147-1.25-2.939
	c-2.499-3.001-4.587-2.432-7.85-0.257C341.824,352.818,339.755,353.989,341.103,356.794z M111.782,549.219
	c2.208-0.895,4.122-1.668,6.034-2.441c0.021-0.164,0.041-0.329,0.062-0.493c-1.563-0.522-3.094-1.269-4.7-1.504
	c-1.589-0.234-3.254,0.044-5.241,0.109C109.553,546.709,110.728,548.032,111.782,549.219z M111.694,557.905
	c-1.548-1.396-2.788-0.949-3.98,1.403C109.228,558.776,110.356,558.378,111.694,557.905z"/>
<path fill="#FFFFFF" d="M556.605,342.685c0.475-1.172,0.82-2.156,1.265-3.093c1.088-2.296,2.338-4.428,4.699-5.737
	c4.375-2.424,8.502-5.405,13.077-7.333c6.127-2.582,12.544-4.508,18.907-6.483c6.313-1.96,12.903-0.781,19.345-1.331
	c3.614-0.309,7.18-1.194,10.783-1.694c3.031-0.419,6.081-0.749,9.136-0.952c4.529-0.301,8.858,0.806,13.188,2.023
	c1.779,0.501,3.694,0.643,5.558,0.708c3.395,0.121,6.794,0.096,10.189,0.07c5.272-0.04,10.241,0.879,14.521,4.247
	c0.893,0.703,1.826,1.461,2.87,1.835c1.533,0.549,2.222,1.83,2.523,3.062c0.496,2.017,1.795,3.156,3.432,3.949
	c2.968,1.436,4.11,3.899,4.231,6.963c0.033,0.821-0.247,1.731-0.628,2.476c-0.603,1.175-1.453,2.219-2.121,3.364
	c-1.149,1.974-3.498,2.967-5.779,2.503c-1-0.204-2.111,0.032-3.068-0.266c-1.977-0.614-2.146-2.175-1.815-3.983
	c0.138-0.754,1.093-1.638-0.304-2.376c-1.316-0.695-2.458-1.613-4.027-0.64c-1.3,0.807-2.63,1.579-3.997,2.265
	c-5.711,2.86-11.354,5.885-17.197,8.448c-3.942,1.73-8.111,3.081-12.308,4.056c-3.189,0.741-6.584,0.595-9.882,0.898
	c-3.707,0.339-7.401,0.846-11.115,1.089c-6.543,0.428-13.17,0.224-19.624,1.196c-5.957,0.898-11.559-1.104-17.362-0.891
	c-2.79,0.103-5.587-0.012-8.38,0.018c-1.222,0.013-2.841-0.312-3.567,0.327c-1.105,0.97-1.608,2.636-2.327,4.028
	c-0.177,0.342-0.089,0.854-0.314,1.132c-1.386,1.713-0.573,3.35,0.692,4.3c1.907,1.43,2.633,3.251,2.828,5.809
	c0.936-0.663,1.607-1.065,2.195-1.566c3.976-3.386,8.353-4.221,13.489-2.998c2.465,0.587,5.244-0.148,7.882-0.284
	c0.586-0.029,1.355-0.3,1.724-0.03c1.542,1.138,3.086,0.381,4.116-0.383c3.393-2.517,7.393-2.739,11.253-3.24
	c5.465-0.708,10.986-1.025,16.493-1.373c5.425-0.343,10.912-0.137,16.277-0.866c5.522-0.751,10.937-2.326,16.389-3.572
	c1.889-0.432,3.798-0.837,5.62-1.474c3.008-1.051,5.941-2.307,8.926-3.43c3.029-1.14,6.025-2.478,9.417-1.723
	c1.979,0.441,3.281,2.235,2.389,4.011c-0.86,1.712-2.052,3.589-3.615,4.551c-3.321,2.042-6.926,3.666-10.529,5.192
	c-1.391,0.589-3.141,0.269-4.643,0.674c-5.35,1.444-10.593,3.37-16.008,4.456c-5.874,1.178-11.882,1.762-17.855,2.346
	c-6.683,0.654-13.387,1.17-20.093,1.454c-4.646,0.197-9.328,1.034-13.979-0.234c-1.383-0.377-2.548,0.022-3.845,1.052
	c-2.917,2.317-6.553,3.161-10.226,3.263c-3.929,0.109-7.867-0.159-11.802-0.228c-1.586-0.028-2.523,1.088-2.47,2.4
	c0.173,4.154-2.401,6.959-4.459,10.066c-0.893,1.35-1.702,2.705-3.381,3.191c-0.118,0.035-0.245,0.146-0.306,0.257
	c-2.13,3.925-6.486,5.628-9.057,9.168c-2.103,2.894-4.729,5.402-6.909,8.246c-1.117,1.457-1.612,3.379-2.667,4.898
	c-1.516,2.183-0.798,4.354-0.548,6.639c0.305,2.798,0.188,5.64,0.317,8.459c0.091,1.996,0.19,3.999,0.447,5.979
	c0.508,3.898,1.066,7.795,1.763,11.664c0.102,0.563,1.088,1.397,1.639,1.378c2.272-0.087,4.405-0.188,6.622,0.866
	c1.136,0.538,2.852-0.008,4.273-0.245c5.71-0.948,11.38-0.083,17.079,0.095c5.309,0.165,10.524,2.166,15.9,0.796
	c1.406-0.358,2.834-0.771,4.271-0.866c3.731-0.247,7.472-0.392,11.211-0.465c7.403-0.146,14.812-0.147,22.212-0.342
	c4.457-0.117,8.937-0.269,13.354-0.805c3.828-0.465,7.568-1.61,11.384-2.236c2.498-0.409,5.095-0.23,7.585-0.669
	c3.994-0.702,7.92-1.778,11.905-2.537c2.534-0.481,5.125-0.645,7.683-1.015c2.469-0.357,4.924-0.817,7.393-1.192
	c3.19-0.484,6.399-0.858,9.58-1.409c4.069-0.703,8.138-1.448,12.167-2.347c2.003-0.447,3.959-1.175,5.86-1.962
	c1.359-0.564,2.216-1.479,1.09-3.128c-1.831-2.683-2.084-5.871-2.271-8.945c-0.339-5.557-0.288-11.136-0.531-16.699
	c-0.062-1.439-0.413-2.95-1.018-4.25c-0.329-0.704-1.427-1.364-2.251-1.473c-3.564-0.464-6.938-1.365-9.974-3.361
	c-1.724-1.134-3.448-2.272-5.218-3.332c-1.879-1.125-3.515-0.911-4.959,0.75c-3.396,3.903-7.919,5.897-12.661,7.416
	c-4.38,1.402-8.857,2.501-13.29,3.745c-2.242,0.629-4.444,1.473-6.724,1.88c-2.861,0.513-5.779,0.788-8.686,0.967
	c-3.914,0.239-7.847,0.464-11.761,0.352c-2.054-0.06-4.15-0.672-6.104-1.377c-1.272-0.46-0.979-3.313,0.277-4.345
	c4.185-3.432,9.02-4.306,14.304-4.056c3.439,0.162,6.854-0.081,9.943-2.302c1.378-0.991,3.553-1.353,5.317-1.24
	c6.012,0.385,11.42-1.597,16.854-3.672c1.511-0.576,3.085-0.985,4.916-1.56c-1.221-2.554-2.356-4.581-3.163-6.73
	c-0.526-1.407-0.779-2.991-0.792-4.5c-0.017-2.441,0.457-4.892,0.365-7.325c-0.085-2.291,1.036-4.093,1.812-6.045
	c0.615-1.556,2.8-1.925,4.344-1.427c3.25,1.046,3.597,3.446,3.975,6.337c0.429,3.27,1.491,6.479,2.527,9.631
	c0.199,0.606,1.632,1.289,2.358,1.162c5.166-0.904,9.605-0.426,13.668,3.689c2.419,2.45,5.97,4.147,9.319,5.215
	c3.82,1.218,6.479,2.924,7.228,7.02c0.676,3.705,1.426,7.396,2.155,11.093c0.064,0.322,0.172,0.661,0.354,0.933
	c4.127,6.234,3.874,13.363,4.188,20.378c0.121,2.713-0.028,5.33-1.976,7.514c-0.329,0.37-0.474,0.964-0.569,1.479
	c-0.597,3.177-2.811,5.083-6.035,5.773c-5.462,1.173-10.855,2.653-16.306,3.886c-2.143,0.484-4.358,0.64-6.54,0.963
	c-4.592,0.68-9.18,1.387-13.774,2.05c-1.974,0.284-3.981,0.357-5.931,0.75c-4.399,0.889-8.756,2.013-13.166,2.851
	c-2.423,0.461-4.924,0.492-7.381,0.799c-1.984,0.247-3.952,0.623-5.931,0.928c-3.067,0.472-6.126,1.038-9.209,1.375
	c-5.495,0.602-10.999,1.12-16.509,1.562c-5.664,0.456-11.334,0.95-17.012,1.109c-4.177,0.117-8.371-0.465-12.55-0.376
	c-2.659,0.057-5.412,0.443-7.933,1.265c-3.947,1.288-7.818,0.472-11.726,0.284c-3.551-0.17-7.11-0.744-10.64-0.563
	c-3.178,0.162-6.309,1.144-9.472,1.695c-5.016,0.875-9.852,0.848-14.07-2.669c-1.902-1.586-3.95-2.195-6.37-2.274
	c-2.348-0.077-2.971-2.136-4.117-3.592c-0.801-1.019-1.462-2.192-2.417-3.036c-2.328-2.062-3.273-4.545-3.402-7.646
	c-0.119-2.863-0.883-5.696-1.246-8.558c-0.156-1.236-0.1-2.516-0.008-3.767c0.314-4.325,0.673-8.647,1.058-12.968
	c0.044-0.497,0.374-0.965,0.557-1.452c0.258-0.688,0.501-1.383,0.747-2.076c0.107-0.305,0.107-0.76,0.32-0.899
	c2.978-1.964,4.098-5.199,5.666-8.136c0.742-1.392,1.602-2.721,2.416-4.071c0.099-0.162,0.228-0.35,0.389-0.422
	c4.306-1.914,6.647-6.008,9.994-8.985c3.254-2.895,3.998-6.746,4.947-10.816c0.811-3.477,0.257-6.613-0.199-9.845
	c-0.188-1.329-1.32-2.584-2.198-3.741c-1.397-1.845-1.723-5.322-0.423-7.221c2.495-3.646,3.095-7.839,3.703-12.066
	c0.192-1.335,0.623-2.791,1.408-3.849C557.161,344.968,557.405,343.812,556.605,342.685z M668.354,331.409
	c-1.507-0.93-2.594-2.167-3.71-2.194c-5.249-0.131-10.509,0.202-15.76,0.098c-2.692-0.053-5.297-0.401-7.785,1.092
	c-0.771,0.463-1.914,0.492-2.87,0.435c-1.962-0.115-3.91-0.604-5.865-0.604c-2.544-0.001-5.085,0.385-7.633,0.489
	c-3.635,0.149-7.276,0.329-10.91,0.243c-3.721-0.087-7.461-0.884-11.142-0.627c-3.815,0.267-7.693,1.056-11.319,2.284
	c-4.726,1.601-9.289,3.729-13.797,5.895c-1.886,0.906-3.444,2.493-5.152,3.771c0.08,0.23,0.161,0.46,0.241,0.689
	c0.815,0.131,1.629,0.294,2.449,0.388c4.19,0.48,8.382,0.962,12.576,1.405c4.138,0.438,8.271,1.088,12.418,1.17
	c4.256,0.084,8.521-0.465,12.787-0.63c4.714-0.181,9.438-0.142,14.147-0.385c3.691-0.19,7.442-0.325,11.035-1.095
	c4.685-1.003,9.29-2.457,13.829-4.009c3.244-1.11,6.388-2.577,9.458-4.118C663.629,334.563,665.719,333.046,668.354,331.409z"/>
<path fill="#FFFFFF" d="M711.034,609.05c-2.388,0-4.802-0.215-7.155,0.064c-2.021,0.239-3.963,1.089-5.959,1.59
	c-2.51,0.628-5.038,1.178-7.561,1.758c-1.84,0.422-3.707,0.743-5.515,1.273c-4.931,1.446-9.772,3.261-14.772,4.388
	c-3.644,0.821-7.485,0.729-11.229,1.135c-4.846,0.526-9.67,1.245-14.521,1.692c-5.534,0.511-11.098,0.725-16.629,1.254
	c-2.082,0.199-4.127,0.87-6.165,1.417c-2.113,0.567-4.163,1.449-6.307,1.815c-2.31,0.395-4.692,0.463-7.045,0.473
	c-5.146,0.021-10.24,0.209-15.367,1.035c-4.104,0.662-8.383,0.297-12.583,0.271c-3.277-0.019-6.681-0.822-9.8-0.177
	c-3.658,0.757-6.88,0.504-9.52-1.85c-1.781-1.589-4.121-3.058-4.299-6.005c-0.077-1.267-1.342-1.466-2.605-0.634
	c-3.146,2.069-6.407,3.389-10.168,1.486c-0.697-0.353-1.684-0.204-2.299-0.632c-0.945-0.657-1.971-1.477-2.454-2.473
	c-1.062-2.188-2.163-4.465-2.589-6.823c-0.561-3.104-0.826-6.348-0.596-9.484c0.268-3.646-0.175-7.149-0.568-10.739
	c-0.452-4.091-1.747-8.13-0.762-12.396c0.495-2.153,0.06-4.519,0.078-6.786c0.035-3.855,1.415-7.342,3.489-10.454
	c0.516-0.771,2.432-0.929,3.663-0.835c2.466,0.188,4.848,2.657,5.17,5.194c0.486,3.819,0.944,7.65,1.183,11.491
	c0.137,2.198-0.015,4.351-1.198,6.489c-0.795,1.437-1.004,3.604-0.596,5.225c1.268,5.038,1.027,10.118,1.102,15.207
	c0.016,1.066,0.075,2.156,0.31,3.192c0.748,3.302,2.76,4.709,6.143,4.812c2.19,0.066,4.368,0.522,6.553,0.791
	c1.286,0.158,3.019-0.188,3.782,0.52c3.052,2.826,6.465,3.434,10.472,3.161c3.704-0.251,7.478,0.525,11.185,0.287
	c4.083-0.263,8.109-1.278,12.188-1.741c1.955-0.222,3.977,0.216,5.952,0.102c3.311-0.191,6.654-0.351,9.897-0.968
	c2.962-0.562,5.791-1.786,8.719-2.572c1.008-0.271,2.154-0.243,3.203-0.102c5.272,0.718,10.379-0.229,15.53-1.197
	c3.8-0.713,7.696-0.898,11.546-1.359c4.705-0.563,9.456-0.917,14.092-1.847c3.068-0.616,5.936-2.188,8.952-3.143
	c3.524-1.114,7.111-2.035,10.68-3.016c3.202-0.881,6.396-1.808,9.627-2.563c2.097-0.491,4.249-0.948,6.388-1.006
	c3.411-0.092,6.526-1.112,9.705-2.179c2.271-0.764,4.718-1.013,7.095-1.457c2.395-0.448,4.093-1.545,4.859-4.074
	c0.594-1.946,1.816-3.698,2.454-5.636c0.633-1.926,1.365-4.015,1.212-5.964c-0.482-6.155-1.661-12.265-1.981-18.42
	c-0.205-3.942,0.39-7.983,2.298-11.645c0.494-0.95,1.111-1.917,1.282-2.94c0.311-1.849,1.524-2.265,3.027-2.274
	c1.668-0.013,3.576-0.621,4.625,1.413c0.212,0.41,0.419,0.86,0.471,1.31c0.396,3.352,0.771,6.703,1.109,10.061
	c0.088,0.861,0.242,1.802,0.003,2.598c-1.085,3.617-0.456,7.201,0.548,10.606c1.245,4.228,0.894,8.36,0.232,12.53
	c-0.49,3.097-1.201,6.166-1.954,9.212c-0.263,1.071-0.784,2.161-1.455,3.038c-2.153,2.815-4.242,5.723-6.71,8.248
	c-3.155,3.229-7.26,5.014-11.521,6.41c-1.447,0.476-2.844,1.106-4.289,1.587c-0.828,0.275-1.707,0.393-2.563,0.58
	C711.094,609.269,711.062,609.159,711.034,609.05z"/>
<path fill="#FFFFFF" d="M709.069,526.617c2.32-3.039,5.83-2.842,8.884-3.835c1.498-0.487,2.885-1.339,4.29-2.085
	c0.807-0.429,1.521-1.028,2.325-1.458c1.738-0.931,1.922-2.948,1.393-4.03c-1.005-2.061,0.276-3.689,0.21-5.506
	c-0.095-2.693-0.089-5.392-0.184-8.084c-0.084-2.393-0.196-4.787-0.396-7.171c-0.165-1.97-0.579-3.918-0.703-5.887
	c-0.201-3.204-0.364-6.422-0.325-9.63c0.023-1.833,0.653-3.659,0.685-5.493c0.022-1.313-0.657-2.626-0.738-3.957
	c-0.18-2.912-0.271-5.839-0.217-8.757c0.034-1.808,0.753-3.153,3.157-2.621c5.791,1.283,8.747,3.417,8.991,10.004
	c0.158,4.275,0.261,8.562,0.669,12.816c0.229,2.384,1.143,4.694,1.545,7.072c0.388,2.286,0.48,4.62,0.764,6.925
	c0.385,3.119,0.818,6.232,1.244,9.345c0.407,2.976,0.943,5.938,1.219,8.924c0.271,2.956,0.188,5.952-1.406,8.589
	c-0.47,0.78-1.419,1.449-2.295,1.777c-4.369,1.64-7.776,4.56-11.031,7.773c-4.148,4.099-9.42,4.544-14.366,2.668
	c-2.711-1.027-4.166-0.405-6.298,0.656c-4.424,2.202-8.935,4.066-14.021,4.604c-3.723,0.395-7.422,1.693-10.951,3.054
	c-3.765,1.45-7.67,0.91-11.475,1.515c-1.098,0.174-2.192,0.372-3.271,0.632c-5.003,1.205-9.979,2.529-15.011,3.606
	c-1.729,0.37-3.588,0.169-5.389,0.194c-2.795,0.041-5.29,1.182-7.831,2.131c-4.712,1.759-9.521,2.683-14.522,1.618
	c-2.297-0.489-4.173,0.538-6.168,1.3c-6.026,2.303-11.984,4.341-18.723,2.691c-4.671-1.145-9.49-0.243-14.266,0.591
	c-5.327,0.929-10.697,2.614-16.199,0.955c-1.203-0.362-2.318-1.047-3.534-1.329c-1.338-0.311-2.867-0.753-4.102-0.396
	c-4.72,1.357-9.243,0.835-13.831-0.563c-1.269-0.387-2.752-0.159-4.127-0.062c-2.324,0.16-3.361-0.521-3.782-2.854
	c-0.421-2.336-0.913-4.681-1.031-7.039c-0.075-1.495,0.495-2.828,2.218-3.629c1.782-0.828,3.332-2.212,5.472-1.528
	c1.433,0.456,2.874,0.95,4.205,1.635c2.76,1.417,5.856,1.653,8.694,1.467c4.713-0.312,9.229-0.062,13.657,1.509
	c3.396,1.204,6.766,0.45,10.152,0.056c5.335-0.622,10.663-1.333,16.013-1.768c1.661-0.136,3.376,0.637,5.082,0.747
	c1.871,0.121,3.854,0.315,5.621-0.152c4.324-1.146,8.521-2.771,12.837-3.962c1.459-0.403,3.183-0.375,4.673-0.038
	c3.165,0.717,6.048,0.361,8.959-1.057c4.981-2.427,10.349-2.854,15.823-3.049c3.773-0.137,7.515-1.105,11.279-1.634
	c2.176-0.306,4.365-0.594,6.559-0.677c3.761-0.144,7.304-1.031,10.892-2.166c2.625-0.83,5.252-1.766,8.009-2.351
	c3.701-0.784,7.272-2.438,10.72-4.095c2.576-1.237,6.276-1.182,8.483,0.771C707.991,525.732,708.405,526.062,709.069,526.617z"/>
<path fill="#FFFFFF" d="M698.984,501.659c0.567-2.049,0.133-3.197-2.09-5.599c-0.595,0.347-1.244,0.66-1.826,1.071
	c-4.793,3.374-9.99,3.271-14.837,0.745c-5.817-3.032-8.603-8.201-9.133-14.906c-0.247-3.13-0.156-5.921,0.865-8.867
	c1.121-3.222,2.867-4.879,6.339-5.232c0.998-0.103,1.984-0.497,2.974-0.483c2.092,0.028,3.992,2.05,4.484,4.17
	c0.451,1.943,0.419,3.693-0.38,5.58c-0.691,1.642,1.565,7.143,3.171,8.057c0.568,0.323,1.714,0.395,2.14,0.037
	c0.657-0.554,1.202-1.542,1.299-2.401c0.254-2.294-0.75-4.765,0.809-6.865c0.984-1.325,2.073-2.632,3.346-3.663
	c1.473-1.189,4.606-0.708,5.725,0.919c1.581,2.303,2.903,4.784,4.308,7.207c1.334,2.303,2.67,4.605,3.934,6.946
	c2.182,4.047,5.072,7.893,5.111,12.714c0.057,7.146-2.888,13.061-8.78,17.064c-3.226,2.188-7.229,2.23-11.057,1.511
	c-0.889-0.167-1.652-1.06-2.441-1.66c-0.688-0.521-1.254-1.271-2.013-1.62c-1.067-0.492-2.227-0.86-2.252-2.226
	c-0.033-1.774-0.151-3.624,0.283-5.308c0.491-1.896,1.482-3.683,2.403-5.438c0.576-1.104,1.27-2.243,2.189-3.042
	c1.419-1.23,2.743-0.117,4.019,0.605C698.02,501.232,698.501,501.428,698.984,501.659z"/>
<path fill="#FFFFFF" d="M587.486,492.844c0.354,1.196,0.867,2.371,1.028,3.592c0.232,1.772,0.371,3.59,0.255,5.367
	c-0.128,1.909,0.9,2.472,2.442,2.778c1.04,0.206,2.079,0.45,3.089,0.767c1.65,0.518,1.517,1.708,0.844,2.859
	c-4.07,6.968-10.471,10.763-17.975,12.966c-2.198,0.646-4.435,1.253-6.695,1.569c-4.972,0.692-12.239-2.686-14.216-6.426
	c-1.718-3.257-1.397-6.288,0.964-9.079c1.459-1.724,2.723-3.69,4.448-5.084c1.603-1.295,3.689-1.998,5.585-2.916
	c0.966-0.467,2.017-0.765,2.964-1.259c2.041-1.064,2.958-5.285,1.369-6.964c-0.559-0.59-1.895-0.926-2.683-0.703
	c-1.166,0.331-2.269,1.144-3.205,1.969c-2.693,2.368-5.668,3.007-8.992,1.693c-2.227-0.879-2.88-3.123-1.104-6.329
	c1.132-2.044,2.938-3.789,4.698-5.388c1.769-1.607,3.739-3.064,5.818-4.244c4.477-2.538,13.085-1.678,16.205,2.077
	c2.065,2.488,3.167,5.803,4.562,8.812c0.55,1.181,0.727,2.534,1.07,3.81C587.803,492.756,587.645,492.801,587.486,492.844z"/>
<path fill="#FFFFFF" d="M534.723,507.104c-1.367-2.227-2.3-0.459-3.582,0.009c-0.843-2.388-2.111-4.446-1.567-7.311
	c0.653-3.438,0.711-7.01,0.813-10.529c0.156-5.256,0.082-10.516,0.202-15.771c0.04-1.761,0.348-3.519,0.581-5.271
	c0.324-2.444,1.734-4.003,4.364-3.859c1.758,0.096,3.793-0.502,5.376,1.558c1.562,2.031,1.687,4.038,1.646,6.347
	c-0.068,4.196,0.042,8.396,0.104,12.597c0.033,2.318,0.31,4.649,0.135,6.949c-0.258,3.382-0.445,6.853-1.401,10.063
	c-0.518,1.729-2.566,3.007-3.946,4.466c-0.216,0.229-0.553,0.344-0.443,0.278c0.969,2.266,2.268,4.305,2.671,6.507
	c0.444,2.431,0.1,5.011,0.041,7.523c-0.056,2.407-0.37,4.682,0.928,7.084c1.917,3.548-1.39,8.328-5.474,8.526
	c-0.991,0.048-1.998,0.258-2.952,0.546c-2.024,0.61-2.753-0.062-3.651-1.933c-1.954-4.065-0.344-8.18-0.635-12.245
	c-0.211-2.956,0.896-5.881-0.039-8.854c-0.354-1.123,2.685-4.994,3.921-5.45C532.735,507.991,533.631,507.568,534.723,507.104z"/>
<path fill="#FFFFFF" d="M580.268,595.869c-0.832,0.368-1.545-0.472-2.178-1.668c-0.616-1.162-1.535-2.188-1.998-3.397
	c-0.258-0.672-0.152-1.996,0.305-2.338c1.897-1.42,3.847-3.017,6.043-3.75c6.729-2.248,13.564-4.182,20.393-6.122
	c2.595-0.736,5.244-0.578,7.804,0.402c1.464,0.561,2.145,1.689,2.199,3.181c0.02,0.484-0.137,1.213-0.472,1.435
	c-3.315,2.179-6.534,4.446-10.455,5.636c-4.867,1.475-9.551,3.548-14.382,5.161C585.422,595.109,583.148,595.308,580.268,595.869z"
	/>
<path fill="#FFFFFF" d="M166.11,553.367c2.537,0.182,4.79,0.44,6.508,2.435c1.218,1.414,1.524,3.084,0.955,4.747
	c-0.984,2.877-3.528,4.449-6.124,5.148c-3.764,1.016-7.666-3.854-6.428-7.578c0.042-0.126,0.093-0.252,0.151-0.371
	c0.544-1.113,0.857-2.479,1.707-3.259C163.651,553.781,165.01,553.716,166.11,553.367z"/>
<path fill="#FFFFFF" d="M352.845,562.466c0.456-3.66,1.653-6.391,4.579-8.062c0.426-0.243,1.501-0.251,1.521-0.173
	c0.438,1.688,2.071,1.879,3.203,2.69c1.48,1.067,1.476,4.76,0.228,6.905c-1.354,2.329-3.487,3.262-5.954,3.42
	c-0.818,0.052-2.062-0.524-2.456-1.198C353.285,564.882,353.116,563.416,352.845,562.466z"/>
<path fill="#FFFFFF" d="M227.011,569.366c-3.21-2.778-3.979-5.005-2.367-8.359c0.52-1.082,1.128-3.051,2.947-2.377
	c2.544,0.941,6.453,0.28,6.828,4.275C234.905,568.072,230.723,568.564,227.011,569.366z"/>
<path fill="#FFFFFF" d="M275.247,575.863c-4.235-1.766-2.829-5.366-2.814-8.396c0.003-0.724,1.416-2.035,2.206-2.055
	c2.786-0.068,5.206,1.269,7.082,3.244c1.158,1.219-0.515,4.708-2.5,5.579C277.825,574.851,276.398,575.395,275.247,575.863z"/>
<path fill="#FFFFFF" d="M241.557,568.821c0.815-0.573,1.64-1.422,2.642-1.805c2.292-0.872,6.695,0.827,7.691,2.698
	c0.612,1.149,0.348,2.035-0.492,2.869c-2.89,2.869-6.633,2.02-8.066-1.758C243.089,570.188,242.379,569.726,241.557,568.821z"/>
<path fill="#FFFFFF" d="M262.126,562.019c1.438-1.07,2.783-1.163,4.208-0.238c0.438,0.284,0.946,0.521,1.454,0.624
	c2.118,0.43,3.667,2.389,3.256,4.197c-0.412,1.815-3.004,2.971-4.973,2.625c-2.485-0.437-3.55-1.628-3.371-4.156
	C262.767,564.112,262.349,563.12,262.126,562.019z"/>
<path fill="#FFFFFF" d="M302.397,568.699c-2.339,0.079-4.514-2.055-5.068-4.39c-0.409-1.725-0.7-3.072,1.317-3.812
	c0.061-0.022,0.105-0.087,0.166-0.111c1.613-0.671,7.104,2.414,7.373,4.142C306.41,565.965,303.976,568.646,302.397,568.699z"/>
<path fill="#FFFFFF" d="M322.918,567.247c1.758-1.543,2.104-1.455,3.579,0.548c0.405,0.551,1.35,0.714,2.058,1.028
	c2.18,0.971,3.127,3.096,1.689,4.32c-0.947,0.807-2.564,1.339-3.77,1.175c-1.081-0.147-2.558-0.739-2.513-2.679
	C323.995,570.241,323.32,568.825,322.918,567.247z"/>
<path fill="#FFFFFF" d="M204.999,563.938c-0.124,0.141,0.049-0.22,0.325-0.337c1.618-0.689,6.379,1.689,7,3.29
	c0.574,1.483,0.008,2.744-1.019,3.34c-0.946,0.548-2.405,0.573-3.538,0.343c-1.435-0.293-1.735-1.535-1.727-2.991
	C206.046,566.537,205.469,565.49,204.999,563.938z"/>
<path fill="#FFFFFF" d="M293.361,373.493c0.068-3.077-1.685-2.767-3.06-2.89c-2.392-0.212-3.955-1.486-3.627-3.287
	c0.237-1.303,0.754-2.593,1.361-3.778c0.752-1.468,1.671-2.861,2.616-4.219c3.847-5.53,8.686-9.662,15.723-10.14
	c4.424-0.3,9.781,2.778,10.81,7.968c0.189,0.952,0.761,1.823,1.096,2.752c0.269,0.747,0.596,1.519,0.637,2.292
	c0.152,2.862,0.151,5.732,0.292,8.595c0.19,3.839-3.146,6.231-6.665,4.746c-3.238-1.367-6.588-0.726-9.882-0.386
	c-2.692,0.279-5.354,0.659-7.897-0.562C294.088,374.262,293.552,373.646,293.361,373.493z M297.829,365.551
	c2.694,0,5.031,0.098,7.352-0.055c0.764-0.051,1.716-0.577,2.18-1.189c1.022-1.349,0.59-4.223-0.72-5.196
	c-1.538-1.145-2.937-0.261-4.424,0.418C299.724,360.667,299.149,363.073,297.829,365.551z"/>
<path fill="#FFFFFF" d="M129.212,375.432c0.366-0.897,1.131-2.143,1.367-3.48c0.507-2.882,2.099-5.18,3.622-7.525
	c1.354-2.085,5.704-3.305,8.073-2.47c3.448,1.215,6.156,3.618,8.482,6.162c1.44,1.575,1.702,4.273,2.353,6.508
	c0.541,1.856,0.898,3.766,1.302,5.66c0.565,2.653-2.625,6.775-5.342,6.728c-0.675-0.012-1.658-0.644-1.945-1.253
	c-0.894-1.893-2.245-1.66-3.402-0.708c-2.36,1.938-4.58,1.28-6.943,0.153c-1.122-0.535-2.455-0.679-3.496-1.318
	C131.762,382.954,129.236,377.653,129.212,375.432z"/>
<path fill="#FFFFFF" d="M126.413,496.94c1.138-2.289,1.958-4.825,3.497-6.804c1.846-2.375,4.059-4.652,6.568-6.265
	c2.263-1.454,5.133-2.623,7.748-2.649c1.929-0.02,3.888,1.987,5.803,3.144c0.185,0.111,0.277,0.629,0.196,0.891
	c-0.811,2.635-1.56,5.112-4.07,6.995c-2.645,1.982-4.748,4.726-6.933,7.271c-1.517,1.767-5.297,2.818-7.519,1.849
	c-0.61-0.267-1.271-0.47-1.93-0.564c-2.126-0.309-2.747-1.766-2.858-3.649C126.748,497.084,126.581,497.013,126.413,496.94z"/>
<path fill="#FFFFFF" d="M256.686,493.112c-2.283,6.058-7.149,9.831-12.14,13.508c-0.556,0.41-1.015,1.034-1.346,1.653
	c-1.701,3.176-4.854,5.086-8.177,4.074c-1.243-0.379-2.811-2.629-2.712-3.908c0.271-3.535,1.636-6.89,4.552-9.247
	c3.632-2.938,7.339-5.783,11.024-8.655c0.523-0.408,1.119-0.72,1.659-1.108c1.426-1.021,2.442-1.132,3.553,0.669
	C253.85,491.316,255.377,492.055,256.686,493.112z"/>
<path fill="#FFFFFF" d="M215.786,507.581c-3.767-0.431-5.007-1.423-4.693-4.791c0.346-3.706,2.542-5.896,4.847-8.156
	c1.992-1.955,4.198-3.689,6.287-5.547c1.144-1.016,2.031-0.509,2.945,0.354c0.84,0.793,1.822,1.449,2.581,2.309
	c0.443,0.501,0.929,1.379,0.781,1.919c-0.569,2.067-1.111,4.106-2.963,5.651c-2.497,2.083-4.631,4.594-7.052,6.774
	C217.632,506.892,216.372,507.273,215.786,507.581z"/>
<path fill="#FFFFFF" d="M104.07,477.829c-0.018,3.408-1.297,6.278-3.776,8.714c-0.922,0.906-1.57,2.13-2.204,3.286
	c-1.602,2.92-3.403,3.554-6.535,2.387c-1-0.372-2.149-0.332-3.223-0.525c-0.433-0.079-0.998-0.167-1.214-0.464
	c-0.164-0.225,0.069-0.807,0.226-1.188c0.76-1.857,3.077-3.177,1.946-5.708c-0.057-0.128,0.372-0.515,0.618-0.73
	c2.726-2.386,4.853-5.502,8.406-6.882c1.147-0.446,2.156-0.803,3.237,0.358C102.034,477.593,103.101,477.564,104.07,477.829z"/>
<path fill="#FFFFFF" d="M114.847,481.949c0.664,2.312,2.359-0.077,3.528,0.751c0.106,0.763,0.318,1.528,0.3,2.29
	c-0.053,2.19-0.516,3.986-2.738,5.326c-2.842,1.712-5.325,4.022-8.177,6.242c-0.231-0.591-0.267-0.935-0.397-0.976
	c-4.254-1.342-1.186-4.324-1.419-6.54c-0.058-0.553,0.368-1.31,0.805-1.734c1.48-1.438,2.976-2.893,4.644-4.093
	C112.311,482.555,113.586,482.388,114.847,481.949z"/>
<path fill="#FFFFFF" d="M271.033,496.354c1.604,1.372,2.94,2.516,4.678,4.003c-0.941,1.578-1.768,3.602-3.174,5.071
	c-0.771,0.809-2.565,1.385-3.837,0.428c-0.803-0.604-1.272-1.668-1.831-2.563c-0.104-0.167,0.184-0.544,0.117-0.772
	C265.805,498.493,268.818,497.436,271.033,496.354z"/>
<path fill="#FFFFFF" d="M637.93,508.762c-0.012-0.049-0.168-0.684-0.312-1.319c-0.659-2.878,0.314-4.464,3.156-5.225
	c1.593-0.427,3.287-0.691,4.711-1.452c1.017-0.542,2.148-1.68,2.377-2.735c0.687-3.162,1.133-6.404,1.333-9.636
	c0.197-3.19-0.226-3.597-3.472-3.626c-1.419-0.014-1.891-0.479-2.115-1.714c-0.274-1.514-0.817-2.998-0.925-4.519
	c-0.048-0.688,0.503-1.779,1.092-2.076c1.522-0.769,3.247-1.131,4.838-1.786c1.266-0.522,2.393-1.459,3.688-1.812
	c1.413-0.385,3.081-0.729,4.403-0.326c1.715,0.523,3.359,1.619,4.743,2.806c1.721,1.479,0.544,3.486,0.421,5.281
	c-0.118,1.718-0.34,3.438-0.312,5.155c0.055,3.409,0.22,6.817,0.394,10.225c0.1,1.95,1.23,2.92,3.116,3.391
	c2.253,0.562,4.486,1.275,6.638,2.151c2.165,0.881,2.544,4.771,1.265,6.6c-1.701,2.436-4.259,2.23-6.549,2.696
	c-3.249,0.662-6.579,0.922-9.872,1.363c-0.724,0.097-1.44,0.227-2.16,0.354c-4.043,0.718-8.066,1.577-12.135,2.104
	C639.894,514.967,637.896,512.305,637.93,508.762z"/>
<path fill="#FFFFFF" d="M613.907,491.645c-1.353-0.434-2.654-0.896-3.981-1.27c-3.336-0.938-3.534-3.18-2.073-5.984
	c1.479-2.84,4.671-2.905,6.934-4.471c1.639-1.134,3.478-1.999,5.283-2.868c3.906-1.881,7.213-0.189,7.278,4.184
	c0.065,4.3-0.65,8.617-1.104,12.919c-0.23,2.193-0.708,4.36-0.938,6.554c-0.292,2.786,1.389,4.38,3.558,5.746
	c0.873,0.55,1.939,1.486,2.068,2.37c0.211,1.456-0.458,2.795-2.123,3.463c-2.305,0.924-4.441,2.656-6.796,2.974
	c-4.355,0.589-8.825,1.321-13.229,0.07c-1.845-0.523-2.771-2.353-2.087-4.786c0.36-1.283,1.137-2.794,2.19-3.463
	c2.146-1.358,2.714-3.449,3.213-5.534C612.857,498.386,613.287,495.145,613.907,491.645z"/>
</svg>
